<svg viewBox="0 0 30 31" fill="none" xmlns="http://www.w3.org/2000/svg">
<g clip-path="url(#clip0_1216_42327)">
<path d="M1.87522 1.90625C1.87522 2.68555 2.50217 3.3125 3.28147 3.3125H26.719C27.4983 3.3125 28.1252 2.68555 28.1252 1.90625C28.1252 1.12695 27.4983 0.5 26.719 0.5H3.28147C2.50217 0.5 1.87522 1.12695 1.87522 1.90625ZM2.81272 9.875C2.00413 9.875 1.23655 10.2207 0.703345 10.8242C0.170142 11.4277 -0.075952 12.2363 0.0236574 13.0391L1.89866 28.0391C2.07444 29.4453 3.26975 30.5 4.68772 30.5H25.3127C26.7307 30.5 27.926 29.4453 28.1018 28.0391L29.9768 13.0391C30.0764 12.2363 29.8303 11.4336 29.2971 10.8301C28.7639 10.2266 27.9963 9.88086 27.1877 9.88086H2.81272V9.875ZM25.7815 20.6562C25.7815 25.0566 20.9533 28.625 15.0002 28.625C9.04709 28.625 4.21897 25.0566 4.21897 20.6562C4.21897 16.2559 9.04709 12.6875 15.0002 12.6875C20.9533 12.6875 25.7815 16.2559 25.7815 20.6562ZM15.0002 22.5312C16.0373 22.5312 16.8752 21.9043 16.8752 21.125C16.8752 20.3457 16.0373 19.7188 15.0002 19.7188C13.9631 19.7188 13.1252 20.3457 13.1252 21.125C13.1252 21.9043 13.9631 22.5312 15.0002 22.5312ZM2.34397 5.1875C1.56467 5.1875 0.93772 5.81445 0.93772 6.59375C0.93772 7.37305 1.56467 8 2.34397 8H27.6565C28.4358 8 29.0627 7.37305 29.0627 6.59375C29.0627 5.81445 28.4358 5.1875 27.6565 5.1875H2.34397Z" fill="currentColor"/>
</g>
<defs>
<clipPath id="clip0_1216_42327">
<rect width="30" height="30" fill="currentColor" transform="translate(0 0.5)"/>
</clipPath>
</defs>
</svg>
