<svg viewBox="0 0 34 31" fill="none" xmlns="http://www.w3.org/2000/svg">
<g clip-path="url(#clip0_1216_42331)">
<path d="M1.875 2.375C0.837891 2.375 0 3.21289 0 4.25C0 5.28711 0.837891 6.125 1.875 6.125H4.21875V9.875H0V17.375C3.10547 17.375 5.625 19.8945 5.625 23V26.75C5.625 27.7871 6.46289 28.625 7.5 28.625H9.375C10.4121 28.625 11.25 27.7871 11.25 26.75V23C11.25 19.8945 13.7695 17.375 16.875 17.375C19.9805 17.375 22.5 19.8945 22.5 23V26.75C22.5 27.7871 23.3379 28.625 24.375 28.625H26.25C27.2871 28.625 28.125 27.7871 28.125 26.75V23C28.125 19.8945 30.6445 17.375 33.75 17.375V9.875H29.5312V6.125H31.875C32.9121 6.125 33.75 5.28711 33.75 4.25C33.75 3.21289 32.9121 2.375 31.875 2.375H1.875ZM26.7188 6.125V9.875H22.0312V6.125H26.7188ZM19.2188 6.125V9.875H14.5312V6.125H19.2188ZM11.7188 6.125V9.875H7.03125V6.125H11.7188Z" fill="currentColor"/>
</g>
<defs>
<clipPath id="clip0_1216_42331">
<rect width="33.75" height="30" fill="currentColor" transform="translate(0 0.5)"/>
</clipPath>
</defs>
</svg>
