<svg viewBox="0 0 30 31" fill="none" xmlns="http://www.w3.org/2000/svg">
<g clip-path="url(#clip0_1216_42335)">
<path d="M30 5.1875C30 6.24219 29.1621 7.21484 27.75 8C26.0449 8.94336 23.502 9.61133 20.584 9.81055C20.3672 9.70508 20.1504 9.60547 19.9219 9.51758C17.6133 8.55078 14.543 8 11.25 8C10.7637 8 10.2891 8.01172 9.81445 8.03516L9.75 8C8.33789 7.21484 7.5 6.24219 7.5 5.1875C7.5 2.59766 12.5391 0.5 18.75 0.5C24.9609 0.5 30 2.59766 30 5.1875ZM9.41602 9.93945C10.0137 9.89844 10.6289 9.875 11.25 9.875C14.8945 9.875 18.1289 10.5957 20.1855 11.7148C21.6387 12.5059 22.5 13.4902 22.5 14.5625C22.5 14.7969 22.459 15.0254 22.377 15.248C22.1074 16.0215 21.3809 16.7305 20.3262 17.3281C20.3203 17.334 20.3086 17.334 20.3027 17.3398C20.2852 17.3516 20.2676 17.3574 20.25 17.3691C18.1992 18.5059 14.9297 19.2441 11.25 19.2441C7.75781 19.2441 4.63477 18.582 2.56641 17.5391C2.45508 17.4863 2.34961 17.4277 2.24414 17.3691C0.837891 16.5898 0 15.6172 0 14.5625C0 12.5234 3.12891 10.7832 7.5 10.1445C8.11523 10.0566 8.75391 9.98633 9.41602 9.93945ZM24.375 14.5625C24.375 13.2793 23.7539 12.2246 22.9629 11.4336C24.6211 11.1758 26.1387 10.7656 27.4277 10.2324C28.3828 9.83398 29.2734 9.3418 30 8.73828V10.8125C30 11.9434 29.0332 12.9863 27.4336 13.7949C26.5781 14.2285 25.5352 14.5977 24.3633 14.8789C24.3691 14.7734 24.375 14.6738 24.375 14.5684V14.5625ZM22.5 20.1875C22.5 21.2422 21.6621 22.2148 20.25 23C20.1445 23.0586 20.0391 23.1113 19.9277 23.1699C17.8652 24.2129 14.7422 24.875 11.25 24.875C7.57031 24.875 4.30078 24.1367 2.25 23C0.837891 22.2148 0 21.2422 0 20.1875V18.1133C0.732422 18.7168 1.61719 19.209 2.57227 19.6074C4.88672 20.5742 7.95703 21.125 11.25 21.125C14.543 21.125 17.6133 20.5742 19.9277 19.6074C20.3848 19.4199 20.8242 19.2031 21.2402 18.9688C21.5977 18.7695 21.9316 18.5469 22.248 18.3125C22.3359 18.248 22.418 18.1777 22.5 18.1133V18.3125V18.6465V20.1875ZM24.375 20.1875V18.3125V16.7949C25.4883 16.5488 26.5137 16.2383 27.4277 15.8574C28.3828 15.459 29.2734 14.9668 30 14.3633V16.4375C30 17.0527 29.707 17.668 29.127 18.248C28.1719 19.2031 26.4902 19.9883 24.3633 20.498C24.3691 20.3984 24.375 20.293 24.375 20.1875ZM11.25 26.75C14.543 26.75 17.6133 26.1992 19.9277 25.2324C20.8828 24.834 21.7734 24.3418 22.5 23.7383V25.8125C22.5 28.4023 17.4609 30.5 11.25 30.5C5.03906 30.5 0 28.4023 0 25.8125V23.7383C0.732422 24.3418 1.61719 24.834 2.57227 25.2324C4.88672 26.1992 7.95703 26.75 11.25 26.75Z" fill="currentColor"/>
</g>
<defs>
<clipPath id="clip0_1216_42335">
<rect width="30" height="30" fill="currentColor" transform="translate(0 0.5)"/>
</clipPath>
</defs>
</svg>
