<svg viewBox="0 0 72 40" fill="none" xmlns="http://www.w3.org/2000/svg">
<path fill-rule="evenodd" clip-rule="evenodd" d="M71.3555 13.3062C71.1135 12.7628 69.2063 10.8314 66.6916 8.38931C62.7563 4.56673 62.0718 3.6943 61.6495 3.72456C61.226 3.75481 60.7432 4.58186 59.5067 5.86782C58.2815 7.14244 57.5113 7.92788 57.2327 8.1939C56.5281 8.86588 56.5256 8.8041 55.9419 8.1939C55.7755 8.01992 54.0386 6.16536 52.6999 4.73315C51.1772 3.10301 50.0314 1.87252 49.8007 1.70736C49.3684 1.39848 49.0999 1.43252 48.8427 1.74393C48.3511 2.339 47.5671 3.27825 46.1452 4.85923C45.1797 5.93212 43.778 7.43997 43.6797 7.54966C43.4377 7.82198 43.3267 7.83963 42.994 7.50679C42.6612 7.17396 37.1842 1.05682 36.5805 0.452923C35.9767 -0.150974 36.0233 -0.150974 35.4195 0.452923C34.8158 1.05682 29.3388 7.17396 29.006 7.50679C28.6733 7.83837 28.5624 7.82072 28.3203 7.54966C28.2233 7.43997 26.8203 5.93212 25.8548 4.85923C24.4329 3.27825 23.6489 2.339 23.1573 1.74393C22.9001 1.43252 22.6329 1.39848 22.1993 1.70736C21.9686 1.87252 20.8228 3.10301 19.3001 4.73315C17.9614 6.16662 16.2245 8.01992 16.0581 8.1939C15.4744 8.8041 15.4719 8.86588 14.7673 8.1939C14.4887 7.92788 13.7185 7.14244 12.4933 5.86782C11.2568 4.58186 10.7727 3.75481 10.3505 3.72456C9.92819 3.6943 9.24373 4.56673 5.30841 8.38931C2.79368 10.8314 0.886528 12.7628 0.644509 13.3062C0.403752 13.8483 0.5235 14.8267 0.581484 15.2364C0.822242 15.7445 2.29831 19.8054 3.81723 23.9003C5.858 29.4009 8.13573 35.5634 8.31347 35.9353C8.64624 36.63 9.28532 37.8693 9.84625 38.2702C10.4803 38.7228 11.4307 39.1313 12.1858 39.1603C12.4354 39.1704 17.7131 39.212 24.6762 39.1742C35.4763 39.1137 36.5237 39.1137 47.3238 39.1742C54.2869 39.2133 59.5646 39.1704 59.8142 39.1603C60.5693 39.1301 61.5197 38.7228 62.1537 38.2702C62.7147 37.8693 63.3537 36.63 63.6865 35.9353C63.8643 35.5634 66.142 29.4009 68.1828 23.9003C69.7017 19.8054 71.1778 15.7445 71.4185 15.2364C71.4765 14.8267 71.5962 13.8483 71.3555 13.3062ZM65.305 26.418C64.018 30.0149 61.9029 35.6832 61.7504 35.9341C61.3281 36.6287 60.6298 37.1936 59.8142 37.2238C59.5445 37.2339 51.2339 37.2604 44.2545 37.2604H27.7455C20.7661 37.2604 12.4555 37.2339 12.1858 37.2238C11.3702 37.1936 10.6719 36.6287 10.2496 35.9341C10.0971 35.6832 7.98195 30.0149 6.69497 26.418C3.071 16.2854 2.49116 15.012 2.53528 14.3148C2.58192 13.576 3.8084 12.4918 6.82102 9.52398C8.60339 7.76777 10.053 6.25865 10.2496 6.25865C10.416 6.25865 10.653 6.52971 11.4849 7.38072C12.7643 8.68685 14.4648 10.4431 14.7673 10.7746C15.0698 11.1062 15.6345 11.1667 16.0581 10.7746C16.2787 10.5704 17.2568 9.54037 19.174 7.38072C21.2879 5.00043 21.9535 4.3335 22.1993 4.10278C22.7123 3.61991 22.5384 3.71573 23.0816 4.22885C23.3312 4.46461 24.3674 5.61315 25.4766 6.87642C26.7812 8.36158 27.9737 9.75848 28.1237 9.90221C28.4729 10.2363 28.9254 10.2338 29.2582 9.90221C29.5909 9.57063 34.9897 3.30473 35.4347 2.84204C35.8128 2.44994 36.191 2.44994 36.5691 2.84204C37.0141 3.30473 42.4091 9.57063 42.7418 9.90221C43.0746 10.2338 43.5271 10.2363 43.8763 9.90221C44.0263 9.75848 45.2188 8.36158 46.5234 6.87642C47.6326 5.61315 48.6688 4.46461 48.9184 4.22885C49.4616 3.71573 49.2877 3.61991 49.8007 4.10278C50.0465 4.3335 50.7121 5.00043 52.826 7.38072C54.7432 9.54037 55.7213 10.5704 55.9419 10.7746C56.3642 11.1667 56.9302 11.1062 57.2327 10.7746C57.5352 10.4431 59.2357 8.68685 60.5151 7.38072C61.347 6.53098 61.584 6.25865 61.7504 6.25865C61.947 6.25865 63.3966 7.76777 65.179 9.52398C68.1916 12.4918 69.4181 13.576 69.4647 14.3148C69.5088 15.012 68.929 16.2854 65.305 26.418ZM0.568882 15.2906C0.625605 15.505 0.611736 15.4432 0.581484 15.2352C0.542408 15.152 0.536108 15.1646 0.568882 15.2906ZM71.4185 15.2364C71.3895 15.4432 71.3757 15.505 71.4311 15.2919C71.4639 15.1646 71.4576 15.152 71.4185 15.2364Z" fill="currentColor"/>
</svg>
