<svg viewBox="0 0 70 80" fill="none" xmlns="http://www.w3.org/2000/svg">
<path d="M69.384 19.882L55.182 11.684L48.855 15.337V8.2L34.656 0L20.455 8.2V15.296L14.2 11.685L0 19.883V36.279L6.576 40.077L0 43.874V60.271L14.2 68.467L20.455 64.856V71.801L34.655 80L48.858 71.802V64.817L55.182 68.468L69.384 60.271V43.873L62.807 40.076L69.384 36.279V19.882ZM67.259 35.052L56.244 41.411L56.247 28.695L67.259 22.337V35.052ZM67.259 59.044L56.244 65.401L56.247 52.684L67.259 46.327V59.044ZM46.732 70.575L35.717 76.933L35.719 64.215L46.732 57.858V70.575ZM14.2 14.139L25.213 20.496L14.201 26.854L3.187 20.496L14.2 14.139ZM34.656 2.454L45.668 8.813L34.657 15.17L23.643 8.813L34.656 2.454ZM34.657 62.376L23.643 56.018L34.655 49.661L45.67 56.018L34.657 62.376ZM26.275 22.337V35.053L15.262 41.412L15.263 28.695L26.275 22.337ZM40.985 43.873V50.86L34.655 47.207L28.4 50.818V43.874L21.824 40.077L28.4 36.279V29.183L34.656 32.795L40.985 29.14V36.278L47.559 40.075L40.985 43.873ZM55.185 26.854L44.172 20.496L55.182 14.139L66.197 20.496L55.185 26.854ZM46.73 16.565L40.985 19.882V26.686L35.718 29.727L35.719 17.011L46.73 10.654V16.565ZM14.2 44.479L19.699 41.304L25.213 44.488L14.201 50.844L3.187 44.488L8.701 41.304L14.2 44.479ZM15.263 52.685L26.275 46.329V52.046L20.455 55.405V62.405L15.263 65.402V52.685ZM55.185 50.844L44.172 44.486L49.684 41.302L55.182 44.477L60.682 41.302L66.197 44.486L55.185 50.844Z" />
</svg>
