<svg width="662" height="742" viewBox="0 0 662 742" fill="none" xmlns="http://www.w3.org/2000/svg">
<path d="M167.106 145.131C168.317 158.873 175.176 242.837 177.106 286.131C181.686 388.849 171.826 516.886 175.056 683.956C175.67 715.723 177.338 731.614 183.106 733.131C192.276 735.543 191.962 738.875 177.106 740.131C165.236 741.134 150.754 740.881 141.106 731.131C131.169 721.088 54.2385 440.161 7.10646 290.131C-2.82654 258.512 -6.18654 263.427 23.1065 234.131C55.1445 202.09 97.3265 166.927 170.106 93.131C206.036 56.698 253.986 1.37398 272.106 0.130976C290.788 -1.15002 328.104 5.79198 401.106 74.131C439.426 110.004 479.233 166.571 486.106 177.131C498.717 196.508 492.565 216.481 480.106 228.131C464.156 243.045 384.909 304.021 361.106 323.131C368.146 333.859 405.261 362.643 445.106 395.131C473.751 418.487 527.906 464.112 531.106 473.131C541.106 501.312 538.106 567.251 537.106 601.131C534.13 702.009 537.1 730.533 545.106 732.131C554.697 734.045 555.23 737.37 542.106 740.131C531.701 742.32 436.268 740.943 426.106 741.131C417.61 741.288 397.656 728.691 394.106 700.131C391.963 682.893 397.581 585.703 394.734 539.984C394.287 532.796 394.345 530.652 388.106 524.131C376.437 511.935 350.992 487.676 319.106 462.131C289.642 438.526 265.12 417.784 251.106 403.131C236.324 387.674 244.58 377.389 261.106 364.131C279.894 349.058 298.798 334.353 323.106 316.131C341.279 302.508 363.164 285.992 370.106 279.131C382.252 267.126 380.508 260.049 370.106 246.131C364.41 238.51 337.674 204.611 305.106 172.131C275.332 142.436 240.047 109.919 212.106 99.131C202.464 106.445 181.333 126.108 167.106 145.131ZM451.452 280.261H481.458V250.255H511.464V220.249H601.482V250.255H631.489V280.261H661.495V370.279H631.489V400.285H601.482V430.291H511.464V400.285H481.458V370.281H451.452V280.261ZM511.464 370.279V400.285H601.482V370.281H631.489V280.263H601.482V250.257H511.464V280.263H481.458V370.281L511.464 370.279Z" fill="black"/>
</svg>
