<svg xmlns="http://www.w3.org/2000/svg" viewBox="0 0 331 161" fill="none">
<path fill-rule="evenodd" clip-rule="evenodd" d="M137.198 38.3237C139.227 40.7451 140.446 41.2982 141.552 40.0657C143.808 37.5573 152.002 28.3073 152.002 28.3073L152.124 0H129.831L131.973 32.2268C131.973 32.2268 134.868 35.5409 137.198 38.3237ZM117.169 20.0329C118.579 19.2403 119.942 19.789 120.913 20.0546C121.884 20.3203 129.796 30.0493 129.796 30.0493L127.601 0H107.537L109.767 27.4363C109.767 27.4363 115.758 20.8255 117.169 20.0329ZM94.0916 44.4207C94.9886 44.3641 97.4487 41.7293 100.623 38.3237C103.497 35.2448 107.154 31.3558 107.154 31.3558L105.308 0H80.7853L87.5604 38.3237C87.5604 38.3237 92.3804 44.5296 94.0916 44.4207ZM74.0625 29.1783C76.6053 26.9094 76.4094 26.7569 79.7229 30.0493C81.3339 31.6476 85.3833 36.1463 85.3833 36.1463L78.5559 0H56.2626L65.18 37.8839C65.18 37.8839 70.9144 31.9873 74.0625 29.1783ZM62.9506 40.1093L54.0333 0H28.7791L49.5746 53.4834L62.9506 40.1093ZM304.89 0L283.119 55.356C283.119 55.356 288.366 60.0768 289.65 62.7638C291.061 65.7209 291.196 67.7154 290.508 71.0426C290.051 73.2637 262.968 144.319 261.418 147.194C258.427 152.755 252.871 155.385 247.85 155.599C246.47 155.66 209.995 155.599 170.351 155.599C165.557 155.599 165.5 155.468 160.706 155.468C121.061 155.468 84.5821 155.525 83.2019 155.468C78.1815 155.255 72.6256 152.624 69.6343 147.067C68.0885 144.197 41.0013 73.1983 40.5441 70.9773C39.8561 67.6501 39.9911 65.6555 41.4019 62.7029C42.6863 60.0202 47.9331 55.2994 47.9331 55.2994L26.1666 0H0.529297C0.529297 0 61.6923 147.255 62.9506 149.301C66.6909 155.39 71.4108 160.228 76.3266 160.441C77.4935 160.494 117.382 160.555 159.208 160.555C165.5 160.555 166.436 160.69 172.728 160.69C214.554 160.69 254.434 160.624 255.601 160.576C260.517 160.363 264.366 155.52 268.106 149.423C269.364 147.381 330.523 0 330.523 0H304.89ZM189.513 40.1006C190.619 41.333 191.838 40.7799 193.867 38.3586C196.197 35.5714 199.092 32.2573 199.092 32.2573L201.235 0H178.941L179.063 28.3334C179.063 28.3334 187.258 37.5877 189.513 40.1006ZM210.152 20.0721C211.123 19.8064 212.486 19.2533 213.897 20.0503C215.307 20.8472 221.299 27.4581 221.299 27.4581L223.524 0H203.46L201.265 30.0754C201.269 30.0754 209.181 20.3377 210.152 20.0721ZM236.969 44.4599C238.68 44.5688 243.5 38.3586 243.5 38.3586L250.276 0H225.753L223.907 31.3819C223.907 31.3819 227.564 35.2709 230.438 38.3542C233.617 41.7642 236.072 44.4033 236.969 44.4599ZM251.338 30.0754C254.651 26.7831 254.456 26.9311 256.998 29.2044C260.146 32.0177 265.881 37.9144 265.881 37.9144L274.794 0H252.501L245.673 36.1767C245.678 36.1767 249.727 31.6737 251.338 30.0754ZM281.482 53.5269L302.277 0H277.023L268.106 40.1441L281.482 53.5269ZM167.742 16.1265C169.745 18.3126 176.886 26.1516 176.886 26.1516L176.712 0H154.353L154.179 26.1298C154.179 26.1298 161.32 18.2952 163.323 16.1134C165.326 13.9315 165.744 13.9403 167.742 16.1265Z" fill="#4D4E46"/>
</svg>