<svg version="1.1" id="Layer_1" xmlns="http://www.w3.org/2000/svg" xmlns:xlink="http://www.w3.org/1999/xlink" x="0px" y="0px"
	 width="100%" viewBox="0 0 360 360" enable-background="new 0 0 360 360" xml:space="preserve">
<path fill="#000000" opacity="1.000000" stroke="none" 
	d="
M165.000000,361.000000 
	C110.018913,361.000000 55.537827,361.000000 1.028369,361.000000 
	C1.028369,241.060562 1.028369,121.121109 1.028369,1.090832 
	C120.897743,1.090832 240.795578,1.090832 360.846710,1.090832 
	C360.846710,120.999847 360.846710,240.999908 360.846710,361.000000 
	C295.787811,361.000000 230.643906,361.000000 165.000000,361.000000 
M284.714722,230.094711 
	C286.087311,233.449539 288.610596,234.312012 292.067352,233.920929 
	C294.679932,233.625336 297.359985,233.926010 300.072479,234.764542 
	C301.110718,235.514175 302.070770,236.431610 303.210815,236.962814 
	C304.205353,237.426254 306.275024,237.259262 306.374756,237.705109 
	C307.305542,241.867203 310.562500,240.423676 313.114441,240.876114 
	C314.564484,241.133179 315.856262,242.261749 317.307129,242.539810 
	C319.665344,242.991760 322.095581,243.067932 324.495422,243.302734 
	C323.628937,242.102158 322.718872,240.929718 321.917145,239.687332 
	C321.589417,239.179413 321.241760,238.474731 321.337769,237.937134 
	C321.943085,234.546906 319.355927,233.901688 316.827362,232.382660 
	C316.204620,231.887985 315.581879,231.393295 314.714294,230.530045 
	C314.546112,230.276718 314.324371,230.085526 314.000610,229.999084 
	C314.000610,229.999084 314.050995,229.954010 314.191132,229.143082 
	C315.217285,225.015030 318.509644,227.450806 320.747009,226.964859 
	C323.102081,226.453339 325.553345,226.384476 327.962555,226.122223 
	C326.895752,224.223877 326.228363,221.852356 324.669708,220.536728 
	C322.257019,218.500305 320.405151,215.413193 316.243256,215.886429 
	C310.860565,216.498489 307.251617,210.098099 301.409058,211.549255 
	C301.373474,211.558090 300.968842,210.081161 300.877747,208.490677 
	C304.368530,204.835724 304.204346,200.324051 304.020782,195.730484 
	C303.854553,191.571182 304.495575,187.314865 303.819489,183.261673 
	C303.302338,180.161377 301.606964,177.097260 299.826996,174.422043 
	C298.553345,172.507812 296.393890,171.077957 294.404358,169.776306 
	C292.623810,168.611389 290.553223,167.186600 288.579376,167.137695 
	C278.087646,166.877731 267.583130,166.873413 257.089386,167.088867 
	C253.257980,167.167526 251.714874,166.165314 251.891586,162.065018 
	C252.199860,154.912857 252.014328,147.737640 251.967545,140.572525 
	C251.933670,135.385162 253.048721,129.965332 247.794830,126.106735 
	C244.607529,123.765892 242.294922,119.309494 238.884567,118.374725 
	C229.612656,115.833305 220.739639,120.478470 220.097000,132.067383 
	C219.926239,135.146667 218.865204,136.095856 215.918396,136.052521 
	C207.421738,135.927612 198.921997,136.001892 190.423508,136.019760 
	C189.095459,136.022537 187.145493,135.599442 186.543274,136.293350 
	C183.265732,140.069885 180.903503,137.593216 177.208862,136.640411 
	C171.375015,135.135910 169.414780,130.137680 165.132248,127.589432 
	C163.763840,126.775192 162.381531,125.075600 161.108887,125.170250 
	C156.221863,125.533691 153.148010,123.357788 150.511658,119.523308 
	C148.412399,116.470009 145.643799,114.558609 141.337769,114.889641 
	C135.208420,115.360847 129.014923,114.950630 122.850670,115.041382 
	C120.739716,115.072456 118.046814,114.736191 116.637344,115.852509 
	C112.543701,119.094765 107.312538,122.381462 105.687637,126.810150 
	C104.288139,130.624512 101.892723,137.162247 108.373863,140.783630 
	C109.775269,141.566681 110.996391,143.339294 111.471489,144.907288 
	C111.868683,146.218185 111.463074,148.225189 110.613663,149.280685 
	C110.149368,149.857620 107.177963,149.564606 106.794937,148.865372 
	C104.898186,145.402740 101.824654,146.036331 98.893669,146.022873 
	C92.728203,145.994583 86.523438,146.437347 80.410011,145.872604 
	C75.981895,145.463516 73.427338,147.957825 70.643547,150.291290 
	C69.080582,151.601410 68.091339,153.572098 66.705780,155.121948 
	C61.325867,161.139801 61.452374,164.882111 67.309601,170.214340 
	C71.168175,173.727066 71.174171,181.827957 67.472687,185.779587 
	C65.829193,187.534149 63.275673,189.582047 63.267570,191.505768 
	C63.244164,197.061569 60.753696,203.467331 66.908745,207.738708 
	C67.181541,207.928024 67.055679,208.691803 67.060318,209.871719 
	C67.018898,210.559174 66.977486,211.246643 66.052711,212.118042 
	C63.277340,212.306396 58.715660,211.569580 58.051723,212.851486 
	C55.796074,217.206619 52.342934,215.586945 49.220394,216.023361 
	C48.193005,216.166931 47.043850,216.573517 46.277687,217.237534 
	C44.058556,219.160736 41.953907,221.226395 39.925972,223.352173 
	C39.451328,223.849747 39.056026,225.073914 39.333881,225.490601 
	C39.785465,226.167847 40.801277,226.793945 41.616207,226.844833 
	C44.413578,227.019547 47.228867,227.001999 50.034027,226.929733 
	C52.616169,226.863220 53.391232,227.839172 51.855053,230.659607 
	C51.289356,231.191589 50.723663,231.723572 49.466244,232.559158 
	C48.343922,233.858307 47.067780,235.059525 46.155441,236.492386 
	C45.583538,237.390594 45.671280,238.681976 45.259403,239.715805 
	C44.754845,240.982285 44.037453,242.163956 43.412075,243.382294 
	C45.552757,243.223770 47.740768,243.282684 49.817551,242.830643 
	C51.212711,242.526947 52.537395,240.775085 53.743729,240.919876 
	C59.446915,241.604431 62.639507,237.050537 67.706345,234.548019 
	C71.120186,234.315979 74.531425,233.963547 77.948677,233.889877 
	C80.699081,233.830597 82.121498,233.020248 81.035629,229.998901 
	C81.035629,229.998901 81.008461,230.032471 81.945412,230.043304 
	C90.636017,230.004532 99.326630,229.965775 108.199257,230.698502 
	C108.407043,234.110733 110.886124,233.863113 113.250175,233.863998 
	C122.179871,233.867325 131.109558,233.891678 140.112747,234.737595 
	C141.812225,235.488480 143.508209,236.884155 145.211731,236.893433 
	C170.470047,237.030869 195.729416,236.992432 220.988480,236.963501 
	C222.631500,236.961624 224.274216,236.698837 226.628357,236.448166 
	C228.726044,235.583862 230.795807,234.065063 232.926468,233.974152 
	C240.212692,233.663315 247.522476,233.751709 254.818710,233.904739 
	C257.690277,233.964981 259.284821,233.155106 260.040680,230.028427 
	C268.020264,229.975601 275.999847,229.922775 284.714722,230.094711 
z"/>
<path fill="#171717" opacity="1.000000" stroke="none" 
	d="
M67.115517,209.188004 
	C67.055679,208.691803 67.181541,207.928024 66.908745,207.738708 
	C60.753696,203.467331 63.244164,197.061569 63.267570,191.505768 
	C63.275673,189.582047 65.829193,187.534149 67.472687,185.779587 
	C71.174171,181.827957 71.168175,173.727066 67.309601,170.214340 
	C61.452374,164.882111 61.325867,161.139801 66.705780,155.121948 
	C68.091339,153.572098 69.080582,151.601410 70.643547,150.291290 
	C73.427338,147.957825 75.981895,145.463516 80.410011,145.872604 
	C86.523438,146.437347 92.728203,145.994583 98.893669,146.022873 
	C101.824654,146.036331 104.898186,145.402740 106.794937,148.865372 
	C107.177963,149.564606 110.149368,149.857620 110.613663,149.280685 
	C111.463074,148.225189 111.868683,146.218185 111.471489,144.907288 
	C110.996391,143.339294 109.775269,141.566681 108.373863,140.783630 
	C101.892723,137.162247 104.288139,130.624512 105.687637,126.810150 
	C107.312538,122.381462 112.543701,119.094765 116.637344,115.852509 
	C118.046814,114.736191 120.739716,115.072456 122.850670,115.041382 
	C129.014923,114.950630 135.208420,115.360847 141.337769,114.889641 
	C145.643799,114.558609 148.412399,116.470009 150.511658,119.523308 
	C153.148010,123.357788 156.221863,125.533691 161.108887,125.170250 
	C162.381531,125.075600 163.763840,126.775192 165.132248,127.589432 
	C169.414780,130.137680 171.375015,135.135910 177.208862,136.640411 
	C180.903503,137.593216 183.265732,140.069885 186.543274,136.293350 
	C187.145493,135.599442 189.095459,136.022537 190.423508,136.019760 
	C198.921997,136.001892 207.421738,135.927612 215.918396,136.052521 
	C218.865204,136.095856 219.926239,135.146667 220.097000,132.067383 
	C220.739639,120.478470 229.612656,115.833305 238.884567,118.374725 
	C242.294922,119.309494 244.607529,123.765892 247.794830,126.106735 
	C253.048721,129.965332 251.933670,135.385162 251.967545,140.572525 
	C252.014328,147.737640 252.199860,154.912857 251.891586,162.065018 
	C251.714874,166.165314 253.257980,167.167526 257.089386,167.088867 
	C267.583130,166.873413 278.087646,166.877731 288.579376,167.137695 
	C290.553223,167.186600 292.623810,168.611389 294.404358,169.776306 
	C296.393890,171.077957 298.553345,172.507812 299.826996,174.422043 
	C301.606964,177.097260 303.302338,180.161377 303.819489,183.261673 
	C304.495575,187.314865 303.854553,191.571182 304.020782,195.730484 
	C304.204346,200.324051 304.368530,204.835724 300.373444,208.807999 
	C295.563263,209.085571 291.257385,209.045822 286.875671,208.612793 
	C286.823822,207.420639 286.847809,206.621780 287.262787,205.762299 
	C288.843506,204.489380 289.820465,202.752228 291.264343,202.166992 
	C295.023560,200.643295 293.251099,195.994263 292.956726,195.889771 
	C288.248718,194.218643 287.492584,186.845444 280.874664,187.734558 
	C279.463043,187.924225 277.592072,185.183960 276.073090,183.654160 
	C275.784821,183.363876 276.148102,181.854309 276.228485,181.852798 
	C279.429077,181.792862 285.058868,180.988190 285.422638,182.022095 
	C287.192596,187.052551 290.360931,184.227478 293.466553,183.881638 
	C291.644073,181.421295 289.541992,178.647263 286.929626,178.028854 
	C283.154053,177.135101 279.007263,177.739365 275.021637,177.829422 
	C272.638367,177.883270 268.860504,181.995255 268.803650,184.392059 
	C268.703186,188.627777 272.470978,191.544373 277.987152,191.744827 
	C280.929810,194.959015 283.714813,198.001007 286.499817,201.042999 
	C286.190613,201.377228 285.881409,201.711472 285.572205,202.045700 
	C282.098083,200.801056 277.261902,204.773605 274.802155,198.793442 
	C274.588043,198.272827 271.012238,199.134933 268.997925,199.354782 
	C269.835846,200.325897 270.815216,201.212524 271.463196,202.297119 
	C271.912170,203.048676 271.904480,204.073090 271.635773,205.046112 
	C268.241699,205.140930 265.303040,205.323227 262.386444,205.144852 
	C259.494934,204.968002 258.136993,206.194550 257.495728,209.011017 
	C248.365234,209.062714 239.699677,209.094482 231.034210,209.077332 
	C228.961426,209.073242 226.870697,208.879517 226.472687,211.969879 
	C200.212051,212.065292 174.411621,212.053268 148.611740,212.164764 
	C144.988205,212.180420 141.548294,212.201065 138.473663,209.153076 
	C128.357773,209.036804 118.703255,208.966599 108.974701,208.523361 
	C108.270012,203.321259 104.133286,206.235947 101.894730,204.542938 
	C102.858543,203.333603 103.890450,202.631561 104.754967,201.762924 
	C106.465820,200.043945 104.746323,186.542999 102.905075,184.621124 
	C102.340820,184.032150 102.725311,182.534225 102.675346,181.452545 
	C106.146164,181.313019 105.180092,178.693817 105.215759,176.752213 
	C105.291962,172.605438 105.264488,168.456070 105.232132,164.308151 
	C105.201103,160.331329 101.850540,156.914337 97.975090,156.813293 
	C96.321548,156.770172 94.669342,156.675247 92.987404,156.399384 
	C92.768318,156.032089 92.578362,155.869308 92.388412,155.706512 
	C92.238571,156.069412 92.088722,156.432297 91.789268,157.079102 
	C91.580673,157.568665 91.521698,157.774323 91.263626,158.008636 
	C91.050598,158.584763 91.036652,159.132202 90.635353,159.903442 
	C88.412384,159.808273 85.211014,159.898682 84.971970,159.101166 
	C83.786751,155.146927 80.861008,157.396851 78.792450,156.938370 
	C78.317642,156.833115 77.096260,157.773819 77.146919,158.079010 
	C77.272102,158.833115 77.789810,159.713028 78.421646,160.140625 
	C79.114006,160.609177 80.111320,160.627090 81.006485,160.848999 
	C81.006485,173.655869 80.898560,186.116333 81.085281,198.572372 
	C81.129822,201.543839 80.022835,202.341095 77.562256,201.663666 
	C77.701645,198.768051 77.977310,196.272736 77.605316,193.878021 
	C77.439842,192.812820 75.968636,191.950485 75.090080,190.996063 
	C73.935783,194.227936 74.119080,196.519180 73.890640,198.768616 
	C73.586533,201.763245 74.917534,202.542938 77.477127,202.389648 
	C78.271622,203.821213 79.151932,204.886536 80.293823,206.149506 
	C80.668640,207.177887 80.781868,208.008636 80.444122,208.923096 
	C75.700600,209.067184 71.408058,209.127594 67.115517,209.188004 
M126.629463,202.221588 
	C127.654198,202.477173 129.543640,202.658951 129.572723,202.999527 
	C129.951172,207.433014 133.256256,205.154480 135.297867,205.519836 
	C135.730927,205.597336 136.686707,204.647156 136.804855,204.051987 
	C136.920135,203.471313 136.258362,202.155228 135.960220,202.161926 
	C132.236298,202.245697 133.326187,199.516846 133.285706,197.609131 
	C133.193909,193.280930 133.349228,188.946930 133.231461,184.619995 
	C133.119370,180.501526 130.041290,178.540909 126.729431,177.957962 
	C123.014191,177.303986 119.062653,177.497925 115.274200,177.896225 
	C111.619843,178.280426 110.044960,181.182449 108.387726,184.710907 
	C111.232834,184.710907 113.189331,184.710907 115.213676,184.710907 
	C117.078903,178.177307 122.065094,182.441818 125.890121,181.199692 
	C125.890121,183.657318 125.890121,185.581421 125.890121,187.507614 
	C125.579964,187.653381 125.286812,187.907898 124.989655,187.912674 
	C122.159554,187.958145 119.328697,187.953873 116.498184,187.978271 
	C112.171455,188.015594 109.534134,191.473373 108.624405,195.639465 
	C107.666016,200.028458 110.520477,203.796951 112.515221,204.421997 
	C116.665421,205.722443 121.546333,204.690872 126.126938,204.617706 
	C126.070564,203.804550 126.014191,202.991394 125.885551,202.262589 
	C125.885551,202.262589 125.806679,202.340820 126.629463,202.221588 
M118.157150,156.859009 
	C117.662384,156.900299 116.737144,156.921921 116.734238,156.985687 
	C116.528900,161.479477 116.361938,165.976746 116.379570,170.473007 
	C116.380325,170.666290 118.140747,170.852676 119.154625,171.898865 
	C119.416702,172.612976 119.491035,173.766953 119.970566,173.971634 
	C123.804459,175.608063 129.864014,171.565048 129.890503,167.343384 
	C129.952026,157.534164 129.904831,147.724258 129.908630,137.914642 
	C129.911209,131.233536 132.944138,128.636002 140.137482,129.530823 
	C140.137482,134.258057 140.216599,139.048492 140.058960,143.831131 
	C140.032928,144.620529 139.020752,145.421661 138.376175,146.138046 
	C136.540024,148.178818 134.658371,150.178665 132.648239,152.352966 
	C137.030289,154.355820 139.285065,152.797485 141.734024,150.017426 
	C144.392014,147.000076 147.987183,144.885391 147.124496,139.934280 
	C146.702728,137.513702 146.982910,134.956604 147.066406,132.465332 
	C147.214218,128.055573 143.417267,126.127182 140.707809,125.750488 
	C134.508179,124.888573 128.105469,125.356598 121.794136,125.560211 
	C120.763504,125.593452 119.778267,127.033905 118.772049,127.823952 
	C119.059624,128.186066 119.347191,128.548172 119.634766,128.910278 
	C121.735367,129.027634 123.835968,129.145004 126.710258,129.305588 
	C119.759636,136.448380 124.303581,144.879059 121.507004,152.003754 
	C120.693512,153.667343 119.880028,155.330917 118.157150,156.859009 
M185.138931,151.724899 
	C182.699829,153.273682 182.699829,153.273682 181.808762,151.135910 
	C178.517563,149.625717 176.117844,148.524582 173.718109,147.423462 
	C173.887772,147.023926 174.057434,146.624390 174.227097,146.224854 
	C172.415405,146.224854 170.603714,146.224854 168.942368,146.224854 
	C168.011688,147.490036 167.164261,148.654953 166.302399,149.809113 
	C165.725113,150.582169 165.127274,151.339859 164.538620,152.104416 
	C165.350449,152.486893 166.151276,152.895187 166.976288,153.246735 
	C169.004242,154.110886 171.043320,154.948944 173.077927,155.797485 
	C172.966400,156.137390 172.854858,156.477280 172.743317,156.817184 
	C174.538132,156.910187 176.332932,157.003204 179.625153,157.173798 
	C177.478195,159.194656 176.189270,160.304688 175.019852,161.528900 
	C172.088104,164.598007 169.197815,167.707123 166.320801,170.827774 
	C165.673355,171.530045 165.148010,172.344894 164.566467,173.107941 
	C165.371246,173.484253 166.140274,174.034149 166.986664,174.208527 
	C172.238937,175.290527 175.947693,173.088501 178.785141,168.752579 
	C179.220642,168.087097 181.165649,167.536209 181.590927,167.898026 
	C182.968109,169.069733 184.398575,170.527115 185.017639,172.172073 
	C186.489014,176.081879 191.267227,174.074066 191.305191,173.903915 
	C192.354660,169.199387 196.575348,171.773682 199.680618,170.106491 
	C197.484390,164.446823 191.955933,168.925171 190.053558,167.319962 
	C188.846954,164.269897 188.121506,162.161850 187.163956,160.165100 
	C186.830978,159.470795 185.923691,159.051926 185.278717,158.507248 
	C185.925461,157.967987 186.606537,157.464127 187.209351,156.879578 
	C187.817993,156.289398 188.255554,155.487747 188.930771,155.007507 
	C191.441757,153.221664 192.369171,149.158234 196.660873,149.799728 
	C197.397446,149.909821 198.354645,148.543793 199.209930,147.859650 
	C198.235672,147.290375 197.324020,146.533768 196.276505,146.183701 
	C191.244568,144.501968 188.514282,148.433075 185.138931,151.724899 
M160.972488,184.760040 
	C160.972488,190.247238 160.972488,195.734421 160.972488,200.532242 
	C159.535889,202.081741 158.523941,203.173203 157.512009,204.264679 
	C158.944611,204.725006 160.349304,205.399918 161.816956,205.590866 
	C163.617355,205.825104 165.495087,205.840408 167.292892,205.601089 
	C168.756058,205.406296 170.150742,204.697037 171.575790,204.215912 
	C170.530777,203.130112 169.485764,202.044312 168.059921,200.562805 
	C168.059921,195.882599 168.116577,190.561005 168.027710,185.241837 
	C167.998505,183.493607 166.976852,182.312805 165.941910,180.812241 
	C162.036942,175.150391 156.945694,178.925064 152.621521,177.893585 
	C152.044098,177.755844 151.013962,178.653610 150.490204,179.308975 
	C148.639069,181.625183 148.923813,181.447784 146.933792,179.279388 
	C146.002441,178.264572 143.980942,178.083466 142.409653,177.899796 
	C141.723541,177.819595 140.927307,178.681274 140.181091,179.115204 
	C140.981674,179.902527 141.979660,180.574356 142.527069,181.509827 
	C143.068787,182.435593 143.380707,183.622772 143.403061,184.703369 
	C143.495941,189.194656 143.617279,193.700119 143.333664,198.175385 
	C143.248611,199.517303 141.863174,200.766800 141.112473,202.080902 
	C140.750153,202.715134 140.144836,203.465897 140.257660,204.045502 
	C140.374039,204.643387 141.207291,205.515350 141.764618,205.544403 
	C144.653870,205.695114 147.555222,205.614502 150.088654,205.614502 
	C152.271805,197.016083 147.023514,187.931183 155.593170,181.295700 
	C156.622742,182.954834 160.732544,178.620789 160.972488,184.760040 
M205.001984,205.584717 
	C205.390793,204.616745 205.779602,203.648788 206.168411,202.680832 
	C199.985825,200.687378 204.046753,195.557892 202.925995,192.013336 
	C201.700943,188.138977 205.372543,183.441071 199.631348,180.060577 
	C195.699036,177.745193 188.200943,176.716919 185.009094,180.283478 
	C184.548019,180.798691 183.355133,180.658997 182.500900,180.822342 
	C181.633514,175.712738 177.952774,178.456604 174.589966,177.634216 
	C175.187103,179.334717 175.488098,181.059006 175.844086,181.070419 
	C179.115601,181.175461 178.427948,183.510895 178.446304,185.387772 
	C178.490265,189.882050 178.581451,194.383224 178.362564,198.867386 
	C178.310181,199.940353 177.132584,200.966034 176.448959,201.997864 
	C175.989563,202.691238 175.001450,203.474930 175.129684,204.005585 
	C175.290253,204.669861 176.322693,205.531403 177.030975,205.582367 
	C179.633133,205.769653 182.256897,205.656631 185.158112,205.656631 
	C185.158112,198.594513 185.158112,192.132401 185.158112,185.751434 
	C188.909164,184.762558 190.409531,178.491592 195.808060,182.232056 
	C195.808060,185.147446 195.808060,188.287918 195.808060,191.428406 
	C195.808060,194.744415 195.808060,198.060425 195.808060,200.566772 
	C194.224426,202.018265 193.187637,202.968552 192.150864,203.918839 
	C193.467010,204.492294 194.746429,205.423157 196.107147,205.563034 
	C198.743042,205.834015 201.424698,205.659836 205.001984,205.584717 
M221.505997,177.794128 
	C217.370941,177.281433 213.089401,177.456497 210.841354,181.317825 
	C209.582748,183.479675 209.961517,186.663742 209.835541,189.397949 
	C209.690125,192.554062 209.086075,195.953644 210.013168,198.816101 
	C210.849411,201.398117 213.170258,204.878754 215.389633,205.348358 
	C220.119690,206.349197 225.208542,205.654327 230.209686,205.654327 
	C230.566864,203.425735 230.841583,201.711670 230.910568,201.281189 
	C226.596069,201.581039 221.977676,201.901993 217.234772,202.231628 
	C217.234772,198.291824 217.234772,195.070679 217.234772,191.437775 
	C222.972992,191.437775 228.399048,191.437775 234.347198,191.437775 
	C233.991989,187.748413 234.703171,183.830322 233.118179,181.425766 
	C230.952271,178.139938 226.756454,176.894333 221.505997,177.794128 
M215.497299,174.236191 
	C217.936783,174.236191 220.376282,174.236191 222.949036,174.236191 
	C222.949036,173.059708 223.026215,171.881592 222.937958,171.869080 
	C218.679932,171.264709 214.407623,170.760925 210.277908,170.262878 
	C210.277908,166.942444 210.277908,163.714157 210.277908,160.057373 
	C216.036575,160.057373 221.429688,160.057373 227.024429,160.057373 
	C227.024429,157.466888 227.627838,155.079315 226.878693,153.243774 
	C225.834213,150.684631 223.899704,146.666458 222.133591,146.552017 
	C215.817459,146.142776 207.070770,143.203674 204.060410,150.229843 
	C201.561783,156.061646 202.705276,164.061478 204.070847,170.724701 
	C204.960342,175.064835 210.494919,174.439774 215.497299,174.236191 
M248.042587,198.192673 
	C248.042587,193.794647 248.042587,189.396606 248.042587,184.784943 
	C250.720840,184.784943 252.690125,184.784943 253.863205,184.784943 
	C255.102158,183.258987 255.912430,182.261017 256.722687,181.263046 
	C257.598785,183.299118 258.474854,185.335205 259.517029,187.757324 
	C260.931641,187.757324 262.975433,187.757324 266.772095,187.757324 
	C264.577362,183.843964 263.477509,179.158127 261.117554,178.401260 
	C258.482544,177.556198 253.237854,174.803253 251.204285,180.632736 
	C250.147217,180.230164 249.119308,179.613342 248.027679,179.464844 
	C244.628723,179.002502 241.205658,178.717545 237.791931,178.363800 
	C238.090836,179.292542 238.258331,180.293686 238.720490,181.132477 
	C239.359955,182.293106 240.838379,183.306717 240.883438,184.426483 
	C241.110123,190.061264 240.987473,195.710083 240.987473,200.819809 
	C239.589005,202.041214 238.542267,202.955429 237.495544,203.869644 
	C238.811615,204.452911 240.088379,205.390762 241.452332,205.541977 
	C243.914291,205.814926 246.440186,205.755844 248.914642,205.545013 
	C249.837509,205.466385 250.691086,204.574478 251.576248,204.053406 
	C250.920410,203.364548 250.173752,202.739594 249.632599,201.970078 
	C249.008087,201.082001 248.564850,200.066437 248.042587,198.192673 
M241.009766,134.020950 
	C238.043228,131.501694 235.955841,127.009621 230.488159,129.599838 
	C230.679047,130.411774 230.800827,132.030090 231.107178,132.065842 
	C234.976562,132.517075 233.972855,135.383636 233.981583,137.661774 
	C234.019226,147.481506 234.081070,157.303055 233.894409,167.119370 
	C233.870102,168.397385 232.454437,169.649002 231.683090,170.912750 
	C231.301834,171.537369 230.561432,172.212753 230.640961,172.771622 
	C230.718414,173.316025 231.623322,174.138031 232.184525,174.154129 
	C235.840805,174.258850 239.507675,174.259659 243.153900,174.026230 
	C243.508972,174.003494 243.747375,172.158829 244.039932,171.159897 
	C239.406311,170.811539 241.130997,167.250839 241.096405,164.890594 
	C240.949997,154.906403 241.032181,144.918884 241.009766,134.020950 
M151.469406,146.269257 
	C148.383377,149.850769 152.416733,149.504059 153.996582,150.516983 
	C153.996582,156.250793 154.014832,161.912369 153.979126,167.573578 
	C153.972961,168.551285 154.032959,169.726868 153.539322,170.457779 
	C152.799118,171.553802 151.596115,172.337280 150.589920,173.253677 
	C152.277542,173.572357 153.953613,174.008987 155.656113,174.175644 
	C157.272888,174.333893 158.917313,174.209686 160.660309,174.209686 
	C160.660309,164.702316 160.660309,155.500107 160.660309,146.162201 
	C157.614609,146.162201 154.955139,146.162201 151.469406,146.269257 
M161.057190,139.596344 
	C160.436813,138.392776 159.816422,137.189194 159.196045,135.985626 
	C157.340179,137.971786 155.484329,139.957962 152.828766,142.799973 
	C160.065948,143.128677 160.065948,143.128677 161.057190,139.596344 
z"/>
<path fill="#E92D2E" opacity="1.000000" stroke="none" 
	d="
M50.157963,232.255554 
	C50.723663,231.723572 51.289356,231.191589 52.433319,230.404083 
	C58.547466,230.219757 56.497517,226.025146 57.348656,223.146759 
	C59.573776,222.883179 62.536053,223.251312 62.945423,222.396652 
	C64.790291,218.545013 67.982758,219.988800 70.723167,219.790634 
	C73.041008,219.623047 75.396156,219.912262 77.703430,219.683228 
	C78.825653,219.571838 79.902969,218.787537 80.952515,218.219040 
	C82.334305,217.470612 83.668755,216.634781 85.410324,215.897491 
	C86.839752,216.002243 87.882416,216.046066 88.774536,216.439209 
	C87.350288,220.042908 86.076599,223.297287 84.424942,226.626587 
	C83.034142,227.811829 82.021301,228.922150 81.008461,230.032471 
	C81.008461,230.032471 81.035629,229.998901 80.577927,229.991913 
	C76.868668,229.985016 73.583931,229.719391 70.382324,230.119293 
	C69.145836,230.273712 68.097954,231.938156 66.515099,232.970154 
	C63.047386,233.635422 60.003292,234.143860 57.019474,234.892517 
	C55.193817,235.350555 53.460693,236.177429 51.686012,236.838654 
	C51.176662,235.310959 50.667309,233.783249 50.157963,232.255554 
z"/>
<path fill="#E92D2E" opacity="1.000000" stroke="none" 
	d="
M314.959137,230.898621 
	C315.581879,231.393295 316.204620,231.887985 316.995422,233.055359 
	C316.428650,234.783524 315.780548,236.619949 314.938934,236.713394 
	C313.641968,236.857391 312.191345,235.853714 310.844604,235.250458 
	C309.356506,234.583908 307.978058,233.486679 306.432312,233.180573 
	C304.373352,232.772797 302.198975,232.947525 300.038727,232.465118 
	C298.286743,231.359344 296.609680,230.208084 294.845612,230.054199 
	C290.980530,229.717102 286.833282,230.737549 283.671936,226.857559 
	C282.915009,226.698288 282.482147,226.609146 282.048187,226.167816 
	C281.015045,222.594910 279.983002,219.374222 279.338074,216.102417 
	C280.500763,215.967651 281.276398,215.884018 282.447510,215.870193 
	C283.647522,216.073654 285.055023,216.017975 285.165405,216.369598 
	C286.641479,221.070435 290.481110,219.595901 293.668121,219.744080 
	C296.448029,219.873337 300.599823,218.787109 301.742310,220.192093 
	C304.459473,223.533508 307.639557,222.868942 310.817871,223.557983 
	C309.989349,226.947205 309.284729,229.934357 314.050995,229.954010 
	C314.050995,229.954010 314.000610,229.999084 314.037903,230.240662 
	C314.369843,230.621033 314.664490,230.759827 314.959137,230.898621 
z"/>
<path fill="#7C3B2C" opacity="1.000000" stroke="none" 
	d="
M225.917084,236.557404 
	C224.274216,236.698837 222.631500,236.961624 220.988480,236.963501 
	C195.729416,236.992432 170.470047,237.030869 145.211731,236.893433 
	C143.508209,236.884155 141.812225,235.488480 140.089279,234.070709 
	C140.073853,233.235382 140.081909,233.066971 140.548737,232.932587 
	C147.671417,232.973511 154.335327,232.980392 161.467438,233.011871 
	C176.951401,233.011703 191.967163,232.986954 207.451538,233.001953 
	C214.261230,232.999557 220.602341,232.957428 226.833832,233.218475 
	C226.455154,234.533569 226.186127,235.545486 225.917084,236.557404 
z"/>
<path fill="#723A27" opacity="1.000000" stroke="none" 
	d="
M314.121063,229.548553 
	C309.284729,229.934357 309.989349,226.947205 311.257568,223.503693 
	C312.067627,223.078278 312.421722,223.140625 312.719849,223.038925 
	C314.354797,222.481003 315.976044,221.882874 317.601990,221.298569 
	C315.999847,220.632004 314.426910,219.880951 312.789825,219.315536 
	C308.706299,217.905136 304.572815,216.635040 300.525208,215.131485 
	C300.126312,214.983292 300.181915,213.611740 299.809387,212.583893 
	C298.983887,212.280746 298.375488,212.201721 297.344604,212.186264 
	C294.364532,212.214386 291.807037,212.178940 288.902374,212.038177 
	C287.979401,210.987671 287.403534,210.042465 286.856201,209.071198 
	C286.884735,209.045105 286.951508,209.006088 286.951508,209.006073 
	C291.257385,209.045822 295.563263,209.085571 300.302826,209.211670 
	C300.968842,210.081161 301.373474,211.558090 301.409058,211.549255 
	C307.251617,210.098099 310.860565,216.498489 316.243256,215.886429 
	C320.405151,215.413193 322.257019,218.500305 324.669708,220.536728 
	C326.228363,221.852356 326.895752,224.223877 327.962555,226.122223 
	C325.553345,226.384476 323.102081,226.453339 320.747009,226.964859 
	C318.509644,227.450806 315.217285,225.015030 314.121063,229.548553 
z"/>
<path fill="#723A27" opacity="1.000000" stroke="none" 
	d="
M56.910343,223.215439 
	C56.497517,226.025146 58.547466,230.219757 52.611252,230.173676 
	C53.391232,227.839172 52.616169,226.863220 50.034027,226.929733 
	C47.228867,227.001999 44.413578,227.019547 41.616207,226.844833 
	C40.801277,226.793945 39.785465,226.167847 39.333881,225.490601 
	C39.056026,225.073914 39.451328,223.849747 39.925972,223.352173 
	C41.953907,221.226395 44.058556,219.160736 46.277687,217.237534 
	C47.043850,216.573517 48.193005,216.166931 49.220394,216.023361 
	C52.342934,215.586945 55.796074,217.206619 58.051723,212.851486 
	C58.715660,211.569580 63.277340,212.306396 66.521820,212.307739 
	C67.007423,212.685501 67.023926,212.873566 67.002625,213.467834 
	C63.506645,215.684769 60.109226,217.627640 56.567326,219.256332 
	C54.469151,220.221146 52.142887,220.689926 49.919186,221.381760 
	C52.249573,221.992981 54.579960,222.604202 56.910343,223.215439 
z"/>
<path fill="#74392A" opacity="1.000000" stroke="none" 
	d="
M300.074188,232.872025 
	C302.198975,232.947525 304.373352,232.772797 306.432312,233.180573 
	C307.978058,233.486679 309.356506,234.583908 310.844604,235.250458 
	C312.191345,235.853714 313.641968,236.857391 314.938934,236.713394 
	C315.780548,236.619949 316.428650,234.783524 317.161682,233.311432 
	C319.355927,233.901688 321.943085,234.546906 321.337769,237.937134 
	C321.241760,238.474731 321.589417,239.179413 321.917145,239.687332 
	C322.718872,240.929718 323.628937,242.102158 324.495422,243.302734 
	C322.095581,243.067932 319.665344,242.991760 317.307129,242.539810 
	C315.856262,242.261749 314.564484,241.133179 313.114441,240.876114 
	C310.562500,240.423676 307.305542,241.867203 306.374756,237.705109 
	C306.275024,237.259262 304.205353,237.426254 303.210815,236.962814 
	C302.070770,236.431610 301.110718,235.514175 300.054413,234.090546 
	C300.048950,233.235046 300.061584,233.053543 300.074188,232.872025 
z"/>
<path fill="#74392A" opacity="1.000000" stroke="none" 
	d="
M49.812103,232.407349 
	C50.667309,233.783249 51.176662,235.310959 51.686012,236.838654 
	C53.460693,236.177429 55.193817,235.350555 57.019474,234.892517 
	C60.003292,234.143860 63.047386,233.635422 66.523911,233.325104 
	C66.995041,234.097366 67.008316,234.570190 67.021591,235.042999 
	C62.639507,237.050537 59.446915,241.604431 53.743729,240.919876 
	C52.537395,240.775085 51.212711,242.526947 49.817551,242.830643 
	C47.740768,243.282684 45.552757,243.223770 43.412079,243.382294 
	C44.037453,242.163956 44.754845,240.982285 45.259403,239.715805 
	C45.671280,238.681976 45.583538,237.390594 46.155441,236.492386 
	C47.067780,235.059525 48.343922,233.858307 49.812103,232.407349 
z"/>
<path fill="#683426" opacity="1.000000" stroke="none" 
	d="
M226.272736,236.502777 
	C226.186127,235.545486 226.455154,234.533569 226.862244,232.860626 
	C227.016571,231.479416 227.032852,230.759201 227.512817,230.025665 
	C237.991714,230.010880 248.006927,230.009415 258.298065,230.018982 
	C258.757385,230.045929 258.940796,230.061829 259.124207,230.077744 
	C259.284821,233.155106 257.690277,233.964981 254.818710,233.904739 
	C247.522476,233.751709 240.212692,233.663315 232.926468,233.974152 
	C230.795807,234.065063 228.726044,235.583862 226.272736,236.502777 
z"/>
<path fill="#683426" opacity="1.000000" stroke="none" 
	d="
M140.089951,232.898575 
	C140.081909,233.066971 140.073853,233.235382 140.052536,233.655975 
	C131.109558,233.891678 122.179871,233.867325 113.250175,233.863998 
	C110.886124,233.863113 108.407043,234.110733 108.113472,230.057739 
	C108.034058,229.246918 108.040436,229.076874 108.450531,229.006622 
	C110.958145,229.403702 113.058876,229.928741 115.166489,229.957993 
	C123.427055,230.072632 131.689804,230.030838 139.962067,230.404572 
	C140.011581,231.474182 140.050766,232.186371 140.089951,232.898575 
z"/>
<path fill="#773C2A" opacity="1.000000" stroke="none" 
	d="
M108.046814,228.906830 
	C108.040436,229.076874 108.034058,229.246918 108.022461,229.671982 
	C99.326630,229.965775 90.636017,230.004532 81.476936,230.037888 
	C82.021301,228.922150 83.034142,227.811829 84.902527,226.744766 
	C93.176994,226.814468 100.595917,226.840912 108.018059,227.209351 
	C108.029793,228.003189 108.038307,228.455002 108.046814,228.906830 
z"/>
<path fill="#773C2A" opacity="1.000000" stroke="none" 
	d="
M259.582458,230.053085 
	C258.940796,230.061829 258.757385,230.045929 258.393799,229.774200 
	C258.489532,228.361206 258.765472,227.204041 259.452332,226.104767 
	C266.921082,226.458511 273.978851,226.754364 281.130127,227.188889 
	C281.478302,227.221542 281.732941,227.115540 282.002472,226.887085 
	C282.017334,226.764633 282.049286,226.520004 282.049286,226.520004 
	C282.482147,226.609146 282.915009,226.698288 283.674011,227.226746 
	C283.993225,228.400696 283.986328,229.135315 283.979431,229.869934 
	C275.999847,229.922775 268.020264,229.975601 259.582458,230.053085 
z"/>
<path fill="#683426" opacity="1.000000" stroke="none" 
	d="
M284.347076,229.982330 
	C283.986328,229.135315 283.993225,228.400696 283.998108,227.296890 
	C286.833282,230.737549 290.980530,229.717102 294.845612,230.054199 
	C296.609680,230.208084 298.286743,231.359344 300.038727,232.465118 
	C300.061584,233.053543 300.048950,233.235046 300.023193,233.688934 
	C297.359985,233.926010 294.679932,233.625336 292.067352,233.920929 
	C288.610596,234.312012 286.087311,233.449539 284.347076,229.982330 
z"/>
<path fill="#683426" opacity="1.000000" stroke="none" 
	d="
M67.363968,234.795502 
	C67.008316,234.570190 66.995041,234.097366 66.972954,233.269592 
	C68.097954,231.938156 69.145836,230.273712 70.382324,230.119293 
	C73.583931,229.719391 76.868668,229.985016 80.588737,230.010712 
	C82.121498,233.020248 80.699081,233.830597 77.948677,233.889877 
	C74.531425,233.963547 71.120186,234.315979 67.363968,234.795502 
z"/>
<path fill="#874C26" opacity="1.000000" stroke="none" 
	d="
M67.040436,213.061646 
	C67.023926,212.873566 67.007423,212.685501 66.963501,212.215775 
	C66.977486,211.246643 67.018898,210.559174 67.087921,209.529861 
	C71.408058,209.127594 75.700600,209.067184 80.522171,208.995239 
	C81.051193,208.983688 81.203804,209.131332 81.149323,209.489059 
	C81.095177,210.569016 81.095520,211.291229 80.745003,212.232361 
	C75.942909,212.654709 71.491676,212.858170 67.040436,213.061646 
z"/>
<path fill="#723A27" opacity="1.000000" stroke="none" 
	d="
M314.836731,230.714325 
	C314.664490,230.759827 314.369843,230.621033 314.062103,230.219360 
	C314.324371,230.085526 314.546112,230.276718 314.836731,230.714325 
z"/>
<path fill="#F1F1F1" opacity="1.000000" stroke="none" 
	d="
M119.066544,156.994492 
	C119.880028,155.330917 120.693512,153.667343 121.507004,152.003754 
	C124.303581,144.879059 119.759636,136.448380 126.710258,129.305588 
	C123.835968,129.145004 121.735367,129.027634 119.634766,128.910278 
	C119.347191,128.548172 119.059624,128.186066 118.772049,127.823952 
	C119.778267,127.033905 120.763504,125.593452 121.794136,125.560211 
	C128.105469,125.356598 134.508179,124.888573 140.707809,125.750488 
	C143.417267,126.127182 147.214218,128.055573 147.066406,132.465332 
	C146.982910,134.956604 146.702728,137.513702 147.124496,139.934280 
	C147.987183,144.885391 144.392014,147.000076 141.734024,150.017426 
	C139.285065,152.797485 137.030289,154.355820 132.648239,152.352966 
	C134.658371,150.178665 136.540024,148.178818 138.376175,146.138046 
	C139.020752,145.421661 140.032928,144.620529 140.058960,143.831131 
	C140.216599,139.048492 140.137482,134.258057 140.137482,129.530823 
	C132.944138,128.636002 129.911209,131.233536 129.908630,137.914642 
	C129.904831,147.724258 129.952026,157.534164 129.890503,167.343384 
	C129.864014,171.565048 123.804459,175.608063 119.970566,173.971634 
	C119.491035,173.766953 119.416702,172.612976 119.082764,171.499969 
	C119.010902,171.101089 118.927246,171.063156 119.348099,170.989441 
	C120.811813,170.061996 122.666008,169.284378 122.754494,168.341141 
	C123.103340,164.622589 122.897537,160.852005 122.897537,156.957413 
	C121.215836,156.957413 120.073471,156.957413 118.971130,156.944183 
	C119.011147,156.930954 119.066544,156.994492 119.066544,156.994492 
z"/>
<path fill="#F1F1F1" opacity="1.000000" stroke="none" 
	d="
M185.159195,151.298340 
	C188.514282,148.433075 191.244568,144.501968 196.276505,146.183701 
	C197.324020,146.533768 198.235672,147.290375 199.209930,147.859650 
	C198.354645,148.543793 197.397446,149.909821 196.660873,149.799728 
	C192.369171,149.158234 191.441757,153.221664 188.930771,155.007507 
	C188.255554,155.487747 187.817993,156.289398 187.209351,156.879578 
	C186.606537,157.464127 185.925461,157.967987 185.278717,158.507248 
	C185.923691,159.051926 186.830978,159.470795 187.163956,160.165100 
	C188.121506,162.161850 188.846954,164.269897 190.053558,167.319962 
	C191.955933,168.925171 197.484390,164.446823 199.680618,170.106491 
	C196.575348,171.773682 192.354660,169.199387 191.305191,173.903915 
	C191.267227,174.074066 186.489014,176.081879 185.017639,172.172073 
	C184.398575,170.527115 182.968109,169.069733 181.590927,167.898026 
	C181.165649,167.536209 179.220642,168.087097 178.785141,168.752579 
	C175.947693,173.088501 172.238937,175.290527 166.986664,174.208527 
	C166.140274,174.034149 165.371246,173.484253 164.566467,173.107941 
	C165.148010,172.344894 165.673355,171.530045 166.320801,170.827774 
	C169.197815,167.707123 172.088104,164.598007 175.019852,161.528900 
	C176.189270,160.304688 177.478195,159.194656 179.625153,157.173798 
	C176.332932,157.003204 174.538132,156.910187 172.743317,156.817184 
	C172.854858,156.477280 172.966400,156.137390 173.077927,155.797485 
	C171.043320,154.948944 169.004242,154.110886 166.976288,153.246735 
	C166.151276,152.895187 165.350449,152.486893 164.538620,152.104416 
	C165.127274,151.339859 165.725113,150.582169 166.302399,149.809113 
	C167.164261,148.654953 168.011688,147.490036 168.942368,146.224854 
	C170.603714,146.224854 172.415405,146.224854 174.227097,146.224854 
	C174.057434,146.624390 173.887772,147.023926 173.718109,147.423462 
	C176.117844,148.524582 178.517563,149.625717 181.808762,151.135910 
	C182.699829,153.273682 182.699829,153.273682 185.159195,151.298340 
z"/>
<path fill="#ECECEC" opacity="1.000000" stroke="none" 
	d="
M160.971588,184.292358 
	C160.732544,178.620789 156.622742,182.954834 155.593170,181.295700 
	C147.023514,187.931183 152.271805,197.016083 150.088654,205.614502 
	C147.555222,205.614502 144.653870,205.695114 141.764618,205.544403 
	C141.207291,205.515350 140.374039,204.643387 140.257660,204.045502 
	C140.144836,203.465897 140.750153,202.715134 141.112473,202.080902 
	C141.863174,200.766800 143.248611,199.517303 143.333664,198.175385 
	C143.617279,193.700119 143.495941,189.194656 143.403061,184.703369 
	C143.380707,183.622772 143.068787,182.435593 142.527069,181.509827 
	C141.979660,180.574356 140.981674,179.902527 140.181091,179.115204 
	C140.927307,178.681274 141.723541,177.819595 142.409653,177.899796 
	C143.980942,178.083466 146.002441,178.264572 146.933792,179.279388 
	C148.923813,181.447784 148.639069,181.625183 150.490204,179.308975 
	C151.013962,178.653610 152.044098,177.755844 152.621521,177.893585 
	C156.945694,178.925064 162.036942,175.150391 165.941910,180.812241 
	C166.976852,182.312805 167.998505,183.493607 168.027710,185.241837 
	C168.116577,190.561005 168.059921,195.882599 168.059921,200.562805 
	C169.485764,202.044312 170.530777,203.130112 171.575790,204.215912 
	C170.150742,204.697037 168.756058,205.406296 167.292892,205.601089 
	C165.495087,205.840408 163.617355,205.825104 161.816956,205.590866 
	C160.349304,205.399918 158.944611,204.725006 157.512009,204.264679 
	C158.523941,203.173203 159.535889,202.081741 160.972488,200.532242 
	C160.972488,195.734421 160.972488,190.247238 160.971588,184.292358 
z"/>
<path fill="#F0F0EF" opacity="1.000000" stroke="none" 
	d="
M204.544678,205.627441 
	C201.424698,205.659836 198.743042,205.834015 196.107147,205.563034 
	C194.746429,205.423157 193.467010,204.492294 192.150848,203.918823 
	C193.187637,202.968552 194.224426,202.018265 195.808060,200.566772 
	C195.808060,198.060425 195.808060,194.744415 195.808060,191.428406 
	C195.808060,188.287918 195.808060,185.147446 195.808060,182.232056 
	C190.409531,178.491592 188.909164,184.762558 185.158112,185.751434 
	C185.158112,192.132401 185.158112,198.594513 185.158112,205.656631 
	C182.256897,205.656631 179.633133,205.769653 177.030975,205.582367 
	C176.322693,205.531403 175.290253,204.669861 175.129684,204.005585 
	C175.001450,203.474930 175.989563,202.691238 176.448959,201.997864 
	C177.132584,200.966034 178.310181,199.940353 178.362564,198.867386 
	C178.581451,194.383224 178.490265,189.882050 178.446304,185.387772 
	C178.427948,183.510895 179.115601,181.175461 175.844086,181.070419 
	C175.488098,181.059006 175.187103,179.334717 174.589966,177.634216 
	C177.952774,178.456604 181.633514,175.712738 182.500900,180.822357 
	C183.355133,180.658997 184.548019,180.798691 185.009094,180.283478 
	C188.200943,176.716919 195.699036,177.745193 199.631348,180.060577 
	C205.372543,183.441071 201.700943,188.138977 202.925995,192.013336 
	C204.046753,195.557892 199.985825,200.687378 206.168396,202.680832 
	C205.779602,203.648788 205.390793,204.616745 204.544678,205.627441 
z"/>
<path fill="#EFEFEF" opacity="1.000000" stroke="none" 
	d="
M125.957817,202.178238 
	C126.014191,202.991394 126.070564,203.804550 126.126938,204.617706 
	C121.546333,204.690872 116.665421,205.722443 112.515221,204.421997 
	C110.520477,203.796951 107.666016,200.028458 108.624405,195.639465 
	C109.534134,191.473373 112.171455,188.015594 116.498184,187.978271 
	C119.328697,187.953873 122.159554,187.958145 124.989655,187.912674 
	C125.286812,187.907898 125.579964,187.653381 125.890121,187.507614 
	C125.890121,185.581421 125.890121,183.657318 125.890121,181.199692 
	C122.065094,182.441818 117.078903,178.177307 115.213676,184.710907 
	C113.189331,184.710907 111.232834,184.710907 108.387726,184.710907 
	C110.044960,181.182449 111.619843,178.280426 115.274200,177.896225 
	C119.062653,177.497925 123.014191,177.303986 126.729431,177.957962 
	C130.041290,178.540909 133.119370,180.501526 133.231461,184.619995 
	C133.349228,188.946930 133.193909,193.280930 133.285706,197.609131 
	C133.326187,199.516846 132.236298,202.245697 135.960220,202.161926 
	C136.258362,202.155228 136.920135,203.471313 136.804855,204.051987 
	C136.686707,204.647156 135.730927,205.597336 135.297867,205.519836 
	C133.256256,205.154480 129.951172,207.433014 129.572723,202.999527 
	C129.543640,202.658951 127.654198,202.477173 126.359367,201.792480 
	C126.089272,198.275131 126.089272,195.186890 126.089272,191.972885 
	C122.520714,191.972885 119.360771,191.972885 116.273750,191.972885 
	C116.273750,195.470947 116.273750,198.651016 116.273750,202.178238 
	C119.735886,202.178238 122.846848,202.178238 125.957817,202.178238 
z"/>
<path fill="#FDFCFC" opacity="1.000000" stroke="none" 
	d="
M80.032242,205.951874 
	C79.151932,204.886536 78.271622,203.821213 77.436874,202.397324 
	C77.482430,202.038773 77.434914,202.104904 77.434914,202.104904 
	C80.022835,202.341095 81.129822,201.543839 81.085281,198.572372 
	C80.898560,186.116333 81.006485,173.655869 81.006485,160.848999 
	C80.111320,160.627090 79.114006,160.609177 78.421646,160.140625 
	C77.789810,159.713028 77.272102,158.833115 77.146919,158.079010 
	C77.096260,157.773819 78.317642,156.833115 78.792450,156.938370 
	C80.861008,157.396851 83.786751,155.146927 84.971970,159.101166 
	C85.211014,159.898682 88.412384,159.808273 90.832214,160.330795 
	C91.366287,161.351318 91.497551,162.816467 91.239006,162.888824 
	C86.719437,164.153778 88.154846,167.791885 88.026375,170.751099 
	C87.925316,173.078964 87.554672,175.535950 88.140335,177.710236 
	C88.650238,179.603226 91.244545,181.184235 91.238388,182.897064 
	C91.232140,184.634567 88.225853,186.347977 88.194740,188.101395 
	C88.121307,192.239822 86.034927,197.250168 91.448212,200.041824 
	C91.802925,200.224747 91.703430,201.288422 91.401314,202.047470 
	C88.637741,207.173340 83.570999,204.359680 80.032242,205.951874 
z"/>
<path fill="#EDEDED" opacity="1.000000" stroke="none" 
	d="
M221.987961,177.794006 
	C226.756454,176.894333 230.952271,178.139938 233.118179,181.425766 
	C234.703171,183.830322 233.991989,187.748413 234.347198,191.437775 
	C228.399048,191.437775 222.972992,191.437775 217.234772,191.437775 
	C217.234772,195.070679 217.234772,198.291824 217.234772,202.231628 
	C221.977676,201.901993 226.596069,201.581039 230.910568,201.281189 
	C230.841583,201.711670 230.566864,203.425735 230.209686,205.654327 
	C225.208542,205.654327 220.119690,206.349197 215.389633,205.348358 
	C213.170258,204.878754 210.849411,201.398117 210.013168,198.816101 
	C209.086075,195.953644 209.690125,192.554062 209.835541,189.397949 
	C209.961517,186.663742 209.582748,183.479675 210.841354,181.317825 
	C213.089401,177.456497 217.370941,177.281433 221.987961,177.794006 
M230.353256,185.791122 
	C228.845444,184.547394 227.337631,183.303665 225.268341,181.596802 
	C223.178619,181.596802 220.148224,181.596802 217.145660,181.596802 
	C217.145660,183.860886 217.145660,185.761703 217.145660,188.567810 
	C221.797867,187.916672 226.097794,187.314835 230.353256,185.791122 
z"/>
<path fill="#1F1F1F" opacity="1.000000" stroke="none" 
	d="
M91.815208,201.942413 
	C91.703430,201.288422 91.802925,200.224747 91.448212,200.041824 
	C86.034927,197.250168 88.121307,192.239822 88.194740,188.101395 
	C88.225853,186.347977 91.232140,184.634567 91.238388,182.897064 
	C91.244545,181.184235 88.650238,179.603226 88.140335,177.710236 
	C87.554672,175.535950 87.925316,173.078964 88.026375,170.751099 
	C88.154846,167.791885 86.719437,164.153778 91.239006,162.888824 
	C91.497551,162.816467 91.366287,161.351318 91.219574,160.107010 
	C91.036652,159.132202 91.050598,158.584763 91.291946,158.442627 
	C98.992332,163.202057 99.775803,169.869324 97.897591,177.651703 
	C96.830299,177.713181 95.677193,177.662292 94.576118,177.877563 
	C93.567818,178.074677 92.615730,178.559326 91.638870,178.917267 
	C92.353622,179.695770 93.110115,180.440414 93.774818,181.259521 
	C95.376610,183.233444 97.973625,185.087906 98.297729,187.268677 
	C98.994507,191.957214 98.511620,196.821060 98.511620,201.888245 
	C95.961914,201.888245 93.840378,201.888245 91.732101,201.919617 
	C91.745361,201.950989 91.815208,201.942413 91.815208,201.942413 
z"/>
<path fill="#F0F0EF" opacity="1.000000" stroke="none" 
	d="
M272.100861,204.975571 
	C271.904480,204.073090 271.912170,203.048676 271.463196,202.297119 
	C270.815216,201.212524 269.835846,200.325897 268.997925,199.354782 
	C271.012238,199.134933 274.588043,198.272827 274.802155,198.793442 
	C277.261902,204.773605 282.098083,200.801056 285.572205,202.045700 
	C285.881409,201.711472 286.190613,201.377228 286.499817,201.042999 
	C283.714813,198.001007 280.929810,194.959015 277.987152,191.744827 
	C272.470978,191.544373 268.703186,188.627777 268.803650,184.392059 
	C268.860504,181.995255 272.638367,177.883270 275.021637,177.829422 
	C279.007263,177.739365 283.154053,177.135101 286.929626,178.028854 
	C289.541992,178.647263 291.644073,181.421295 293.466553,183.881638 
	C290.360931,184.227478 287.192596,187.052551 285.422638,182.022095 
	C285.058868,180.988190 279.429077,181.792862 276.228485,181.852798 
	C276.148102,181.854309 275.784821,183.363876 276.073090,183.654160 
	C277.592072,185.183960 279.463043,187.924225 280.874664,187.734558 
	C287.492584,186.845444 288.248718,194.218643 292.956726,195.889771 
	C293.251099,195.994263 295.023560,200.643295 291.264343,202.166992 
	C289.820465,202.752228 288.843506,204.489380 286.889160,205.626099 
	C281.450012,205.358887 276.775421,205.167221 272.100861,204.975571 
z"/>
<path fill="#F4F4F4" opacity="1.000000" stroke="none" 
	d="
M215.012115,174.223541 
	C210.494919,174.439774 204.960342,175.064835 204.070847,170.724701 
	C202.705276,164.061478 201.561783,156.061646 204.060410,150.229843 
	C207.070770,143.203674 215.817459,146.142776 222.133591,146.552017 
	C223.899704,146.666458 225.834213,150.684631 226.878693,153.243774 
	C227.627838,155.079315 227.024429,157.466888 227.024429,160.057373 
	C221.429688,160.057373 216.036575,160.057373 210.277908,160.057373 
	C210.277908,163.714157 210.277908,166.942444 210.277908,170.262878 
	C214.407623,170.760925 218.679932,171.264709 222.937958,171.869080 
	C223.026215,171.881592 222.949036,173.059708 222.949036,174.236191 
	C220.376282,174.236191 217.936783,174.236191 215.012115,174.223541 
M223.444183,155.540405 
	C220.261948,149.751022 218.277496,148.985199 210.203186,150.413040 
	C210.203186,152.456284 210.203186,154.487732 210.203186,157.086990 
	C214.741745,156.801041 218.928238,156.537262 223.444183,155.540405 
z"/>
<path fill="#6C3728" opacity="1.000000" stroke="none" 
	d="
M138.935028,209.199127 
	C141.548294,212.201065 144.988205,212.180420 148.611740,212.164764 
	C174.411621,212.053268 200.212051,212.065292 226.498322,212.259888 
	C227.001923,212.674850 227.019501,212.867905 227.001617,213.442108 
	C225.631927,214.582138 224.297699,215.341034 222.499878,216.050629 
	C195.705917,216.061371 169.375534,216.121384 142.683685,216.097534 
	C141.225861,214.834610 140.129501,213.655563 139.030746,212.147049 
	C138.997253,210.944763 138.966141,210.071945 138.935028,209.199127 
z"/>
<path fill="#F4F4F4" opacity="1.000000" stroke="none" 
	d="
M91.718849,201.888245 
	C93.840378,201.888245 95.961914,201.888245 98.511620,201.888245 
	C98.511620,196.821060 98.994507,191.957214 98.297729,187.268677 
	C97.973625,185.087906 95.376610,183.233444 93.774818,181.259521 
	C93.110115,180.440414 92.353622,179.695770 91.638870,178.917267 
	C92.615730,178.559326 93.567818,178.074677 94.576118,177.877563 
	C95.677193,177.662292 96.830299,177.713181 97.897591,177.651703 
	C99.775803,169.869324 98.992332,163.202057 91.491035,158.413940 
	C91.521698,157.774323 91.580673,157.568665 92.067276,157.079681 
	C92.668777,156.732178 92.842651,156.668030 93.016533,156.603867 
	C94.669342,156.675247 96.321548,156.770172 97.975090,156.813293 
	C101.850540,156.914337 105.201103,160.331329 105.232132,164.308151 
	C105.264488,168.456070 105.291962,172.605438 105.215759,176.752213 
	C105.180092,178.693817 106.146164,181.313019 102.675346,181.452545 
	C102.725311,182.534225 102.340820,184.032150 102.905075,184.621124 
	C104.746323,186.542999 106.465820,200.043945 104.754967,201.762924 
	C103.890450,202.631561 102.858543,203.333603 101.454414,204.668198 
	C98.923615,205.277679 96.824814,205.186996 94.761658,205.416611 
	C91.867432,205.738724 91.597626,204.039413 91.718849,201.888245 
z"/>
<path fill="#F4F4F4" opacity="1.000000" stroke="none" 
	d="
M248.042740,198.649445 
	C248.564850,200.066437 249.008087,201.082001 249.632599,201.970078 
	C250.173752,202.739594 250.920410,203.364548 251.576263,204.053406 
	C250.691086,204.574478 249.837509,205.466385 248.914642,205.545013 
	C246.440186,205.755844 243.914291,205.814926 241.452332,205.541977 
	C240.088379,205.390762 238.811615,204.452911 237.495544,203.869644 
	C238.542267,202.955429 239.589005,202.041214 240.987473,200.819809 
	C240.987473,195.710083 241.110123,190.061264 240.883438,184.426483 
	C240.838379,183.306717 239.359955,182.293106 238.720490,181.132477 
	C238.258331,180.293686 238.090836,179.292542 237.791931,178.363800 
	C241.205658,178.717545 244.628723,179.002502 248.027679,179.464844 
	C249.119308,179.613342 250.147217,180.230164 251.204285,180.632736 
	C253.237854,174.803253 258.482544,177.556198 261.117554,178.401260 
	C263.477509,179.158127 264.577362,183.843964 266.772095,187.757324 
	C262.975433,187.757324 260.931641,187.757324 259.517029,187.757324 
	C258.474854,185.335205 257.598785,183.299118 256.722687,181.263062 
	C255.912430,182.261017 255.102158,183.258987 253.863205,184.784943 
	C252.690125,184.784943 250.720840,184.784943 248.042587,184.784943 
	C248.042587,189.396606 248.042587,193.794647 248.042740,198.649445 
z"/>
<path fill="#F9F9F9" opacity="1.000000" stroke="none" 
	d="
M241.020294,134.476761 
	C241.032181,144.918884 240.949997,154.906403 241.096405,164.890594 
	C241.130997,167.250839 239.406311,170.811539 244.039932,171.159897 
	C243.747375,172.158829 243.508972,174.003494 243.153900,174.026230 
	C239.507675,174.259659 235.840805,174.258850 232.184525,174.154129 
	C231.623322,174.138031 230.718414,173.316025 230.640961,172.771622 
	C230.561432,172.212753 231.301834,171.537369 231.683090,170.912750 
	C232.454437,169.649002 233.870102,168.397385 233.894409,167.119370 
	C234.081070,157.303055 234.019226,147.481506 233.981583,137.661774 
	C233.972855,135.383636 234.976562,132.517075 231.107178,132.065842 
	C230.800827,132.030090 230.679047,130.411774 230.488159,129.599838 
	C235.955841,127.009621 238.043228,131.501694 241.020294,134.476761 
z"/>
<path fill="#F9F9F9" opacity="1.000000" stroke="none" 
	d="
M151.882538,146.215729 
	C154.955139,146.162201 157.614609,146.162201 160.660309,146.162201 
	C160.660309,155.500107 160.660309,164.702316 160.660309,174.209686 
	C158.917313,174.209686 157.272888,174.333893 155.656113,174.175644 
	C153.953613,174.008987 152.277542,173.572357 150.589920,173.253677 
	C151.596115,172.337280 152.799118,171.553802 153.539322,170.457779 
	C154.032959,169.726868 153.972961,168.551285 153.979126,167.573578 
	C154.014832,161.912369 153.996582,156.250793 153.996582,150.516983 
	C152.416733,149.504059 148.383377,149.850769 151.882538,146.215729 
z"/>
<path fill="#874C26" opacity="1.000000" stroke="none" 
	d="
M227.037064,213.060944 
	C227.019501,212.867905 227.001923,212.674850 226.958710,212.191788 
	C226.870697,208.879517 228.961426,209.073242 231.034210,209.077332 
	C239.699677,209.094482 248.365234,209.062714 257.779053,209.030960 
	C258.716095,209.028687 258.904785,209.044342 258.984009,209.438080 
	C257.331482,210.806580 255.820084,212.592926 254.239944,212.655975 
	C245.181351,213.017441 236.106445,212.969772 227.037064,213.060944 
z"/>
<path fill="#874C26" opacity="1.000000" stroke="none" 
	d="
M138.473663,209.153076 
	C138.966141,210.071945 138.997253,210.944763 138.570496,212.249878 
	C129.572525,212.721054 121.028610,212.626022 112.494423,212.870682 
	C109.462517,212.957596 108.381310,211.577942 108.245529,208.981964 
	C108.692230,208.939331 108.870476,208.917862 109.048729,208.896378 
	C118.703255,208.966599 128.357773,209.036804 138.473663,209.153076 
z"/>
<path fill="#7E5143" opacity="1.000000" stroke="none" 
	d="
M108.974701,208.523361 
	C108.870476,208.917862 108.692230,208.939331 107.779144,208.990402 
	C98.430801,209.057129 89.817307,209.094223 81.203804,209.131332 
	C81.203804,209.131332 81.051193,208.983688 80.973145,208.911545 
	C80.781868,208.008636 80.668640,207.177887 80.293823,206.149506 
	C83.570999,204.359680 88.637741,207.173340 91.401314,202.047470 
	C91.815208,201.942413 91.745361,201.950989 91.732101,201.919617 
	C91.597626,204.039413 91.867432,205.738724 94.761658,205.416611 
	C96.824814,205.186996 98.923615,205.277679 101.446823,205.100159 
	C104.133286,206.235947 108.270012,203.321259 108.974701,208.523361 
z"/>
<path fill="#784334" opacity="1.000000" stroke="none" 
	d="
M259.093445,209.059982 
	C258.904785,209.044342 258.716095,209.028687 258.244019,208.993103 
	C258.136993,206.194550 259.494934,204.968002 262.386444,205.144852 
	C265.303040,205.323227 268.241699,205.140930 271.635773,205.046112 
	C276.775421,205.167221 281.450012,205.358887 286.498169,205.686737 
	C286.847809,206.621780 286.823822,207.420639 286.875671,208.612793 
	C286.951508,209.006088 286.884735,209.045105 286.610840,209.059540 
	C286.336945,209.073959 285.843201,209.094467 285.611023,209.090485 
	C285.378845,209.086517 284.932281,209.214264 284.699646,209.172943 
	C284.467010,209.131622 283.997406,209.184174 283.534424,209.108475 
	C275.078796,209.041840 267.086121,209.050919 259.093445,209.059982 
z"/>
<path fill="#DBDBDB" opacity="1.000000" stroke="none" 
	d="
M77.562256,201.663666 
	C77.434914,202.104904 77.482430,202.038773 77.522682,202.031097 
	C74.917534,202.542938 73.586533,201.763245 73.890640,198.768616 
	C74.119080,196.519180 73.935783,194.227936 75.090080,190.996063 
	C75.968636,191.950485 77.439842,192.812820 77.605316,193.878021 
	C77.977310,196.272736 77.701645,198.768051 77.562256,201.663666 
z"/>
<path fill="#F9F9F9" opacity="1.000000" stroke="none" 
	d="
M119.046173,171.071686 
	C118.140747,170.852676 116.380325,170.666290 116.379570,170.473007 
	C116.361938,165.976746 116.528900,161.479477 116.734238,156.985687 
	C116.737144,156.921921 117.662384,156.900299 118.611847,156.926758 
	C119.066544,156.994492 119.011147,156.930954 119.058289,157.404907 
	C119.046036,162.273621 118.986641,166.668381 118.927246,171.063156 
	C118.927246,171.063156 119.010902,171.101089 119.046173,171.071686 
z"/>
<path fill="#ECECEC" opacity="1.000000" stroke="none" 
	d="
M161.056702,140.049606 
	C160.065948,143.128677 160.065948,143.128677 152.828766,142.799973 
	C155.484329,139.957962 157.340179,137.971786 159.196045,135.985626 
	C159.816422,137.189194 160.436813,138.392776 161.056702,140.049606 
z"/>
<path fill="#1F1F1F" opacity="1.000000" stroke="none" 
	d="
M92.987404,156.399384 
	C92.842651,156.668030 92.668777,156.732178 92.216888,156.795776 
	C92.088722,156.432297 92.238571,156.069412 92.388412,155.706512 
	C92.578362,155.869308 92.768318,156.032089 92.987404,156.399384 
z"/>
<path fill="#EEB11C" opacity="1.000000" stroke="none" 
	d="
M81.149323,209.489059 
	C89.817307,209.094223 98.430801,209.057129 107.510681,209.011597 
	C108.381310,211.577942 109.462517,212.957596 112.494423,212.870682 
	C121.028610,212.626022 129.572525,212.721054 138.572876,212.579346 
	C140.129501,213.655563 141.225861,214.834610 142.838745,216.400085 
	C144.561508,218.802979 145.767731,220.819473 146.998688,222.930267 
	C147.023422,223.024582 147.027695,223.219513 146.605713,223.149231 
	C144.198395,222.960968 142.213089,222.842972 140.213562,222.373810 
	C140.061920,221.337921 139.924484,220.653214 139.744049,219.804535 
	C139.408646,219.694275 139.116272,219.747986 138.367371,219.767609 
	C128.290970,219.748291 118.671097,219.763031 108.686386,219.592697 
	C106.167381,219.334335 104.008980,219.321442 101.860260,219.170670 
	C99.750908,219.022644 96.365402,219.437210 95.786217,218.377350 
	C93.974640,215.062317 91.407127,216.143875 88.925087,216.089874 
	C87.882416,216.046066 86.839752,216.002243 85.596809,215.676590 
	C87.139580,210.227310 82.884598,212.688797 81.095856,212.013458 
	C81.095520,211.291229 81.095177,210.569016 81.149323,209.489059 
z"/>
<path fill="#BE3525" opacity="1.000000" stroke="none" 
	d="
M88.774536,216.439209 
	C91.407127,216.143875 93.974640,215.062317 95.786217,218.377350 
	C96.365402,219.437210 99.750908,219.022644 101.860260,219.170670 
	C104.008980,219.321442 106.167381,219.334335 108.665405,220.013550 
	C108.677788,222.702103 108.346306,224.784729 108.014832,226.867355 
	C100.595917,226.840912 93.176994,226.814468 85.280495,226.669846 
	C86.076599,223.297287 87.350288,220.042908 88.774536,216.439209 
z"/>
<path fill="#F7C809" opacity="1.000000" stroke="none" 
	d="
M80.745003,212.232361 
	C82.884598,212.688797 87.139580,210.227310 85.210052,215.615631 
	C83.668755,216.634781 82.334305,217.470612 80.952515,218.219040 
	C79.902969,218.787537 78.825653,219.571838 77.703430,219.683228 
	C75.396156,219.912262 73.041008,219.623047 70.723167,219.790634 
	C67.982758,219.988800 64.790291,218.545013 62.945423,222.396652 
	C62.536053,223.251312 59.573776,222.883179 57.348656,223.146759 
	C54.579960,222.604202 52.249573,221.992981 49.919186,221.381760 
	C52.142887,220.689926 54.469151,220.221146 56.567326,219.256332 
	C60.109226,217.627640 63.506645,215.684769 67.002625,213.467834 
	C71.491676,212.858170 75.942909,212.654709 80.745003,212.232361 
z"/>
<path fill="#EBAC1D" opacity="1.000000" stroke="none" 
	d="
M258.984009,209.438080 
	C267.086121,209.050919 275.078796,209.041840 283.357819,209.428986 
	C280.937836,210.901749 278.231537,211.978302 275.778381,212.954147 
	C277.167358,214.285721 281.729248,210.782974 282.052002,215.800385 
	C281.276398,215.884018 280.500763,215.967651 278.920532,216.052032 
	C276.252991,216.411530 274.325104,216.578308 272.544769,217.180939 
	C270.619080,217.832748 268.904510,219.358887 266.965881,219.663376 
	C264.043823,220.122284 261.007141,219.851593 257.551514,219.835785 
	C248.287918,219.767715 239.491669,219.793884 230.696381,219.715363 
	C228.430939,219.695145 226.680618,219.976059 226.465240,222.867569 
	C224.020355,223.020325 222.006424,223.135010 219.988403,223.154373 
	C219.984314,223.059052 220.024445,222.872513 220.037994,222.521912 
	C221.022202,220.147507 221.992844,218.123703 222.963470,216.099915 
	C224.297699,215.341034 225.631927,214.582138 227.001617,213.442108 
	C236.106445,212.969772 245.181351,213.017441 254.239944,212.655975 
	C255.820084,212.592926 257.331482,210.806580 258.984009,209.438080 
z"/>
<path fill="#F7C809" opacity="1.000000" stroke="none" 
	d="
M282.447510,215.870193 
	C281.729248,210.782974 277.167358,214.285721 275.778381,212.954147 
	C278.231537,211.978302 280.937836,210.901749 283.820801,209.504700 
	C283.997406,209.184174 284.467010,209.131622 284.716431,209.492813 
	C285.330322,210.572433 285.694824,211.290863 286.294220,212.172974 
	C287.435883,212.272278 288.342712,212.207886 289.249512,212.143494 
	C291.807037,212.178940 294.364532,212.214386 297.597656,212.348663 
	C298.857697,212.567673 299.442139,212.687851 300.026550,212.808014 
	C300.181915,213.611740 300.126312,214.983292 300.525208,215.131485 
	C304.572815,216.635040 308.706299,217.905136 312.789825,219.315536 
	C314.426910,219.880951 315.999847,220.632004 317.601990,221.298569 
	C315.976044,221.882874 314.354797,222.481003 312.719849,223.038925 
	C312.421722,223.140625 312.067627,223.078278 311.299683,223.145966 
	C307.639557,222.868942 304.459473,223.533508 301.742310,220.192093 
	C300.599823,218.787109 296.448029,219.873337 293.668121,219.744080 
	C290.481110,219.595901 286.641479,221.070435 285.165405,216.369598 
	C285.055023,216.017975 283.647522,216.073654 282.447510,215.870193 
z"/>
<path fill="#BB2924" opacity="1.000000" stroke="none" 
	d="
M258.019196,219.891052 
	C261.007141,219.851593 264.043823,220.122284 266.965881,219.663376 
	C268.904510,219.358887 270.619080,217.832748 272.544769,217.180939 
	C274.325104,216.578308 276.252991,216.411530 278.533417,216.103165 
	C279.983002,219.374222 281.015045,222.594910 282.048187,226.167816 
	C282.049286,226.520004 282.017334,226.764633 281.764221,226.883057 
	C281.511108,227.001465 281.036652,227.050217 281.036652,227.050232 
	C273.978851,226.754364 266.921082,226.458511 259.143982,226.024292 
	C258.289551,223.887634 258.154388,221.889343 258.019196,219.891052 
z"/>
<path fill="#ED2B2E" opacity="1.000000" stroke="none" 
	d="
M206.982941,232.962189 
	C191.967163,232.986954 176.951401,233.011703 161.436264,232.611328 
	C159.023865,231.461868 157.141785,230.233856 155.191589,230.113998 
	C150.579254,229.830551 147.661545,227.996918 147.027695,223.219513 
	C147.027695,223.219513 147.023422,223.024582 147.465515,222.993317 
	C171.946548,222.932205 195.985489,222.902359 220.024445,222.872528 
	C220.024445,222.872513 219.984314,223.059052 219.987061,223.512024 
	C218.693100,228.267975 215.177094,229.237610 211.339981,230.107544 
	C209.753448,230.467224 208.427429,231.976013 206.982941,232.962189 
z"/>
<path fill="#C32726" opacity="1.000000" stroke="none" 
	d="
M146.605713,223.149231 
	C147.661545,227.996918 150.579254,229.830551 155.191589,230.113998 
	C157.141785,230.233856 159.023865,231.461868 160.968079,232.586731 
	C154.335327,232.980392 147.671417,232.973511 140.548737,232.932587 
	C140.050766,232.186371 140.011581,231.474182 139.989380,229.949097 
	C140.080170,226.999146 140.153976,224.862061 140.227768,222.724991 
	C142.213089,222.842972 144.198395,222.960968 146.605713,223.149231 
z"/>
<path fill="#C32726" opacity="1.000000" stroke="none" 
	d="
M207.451523,233.001938 
	C208.427429,231.976013 209.753448,230.467224 211.339981,230.107544 
	C215.177094,229.237610 218.693100,228.267975 219.991150,223.607346 
	C222.006424,223.135010 224.020355,223.020325 226.492325,223.320206 
	C226.983292,225.836182 227.016205,227.937576 227.049133,230.038986 
	C227.032852,230.759201 227.016571,231.479416 226.971863,232.557465 
	C220.602341,232.957428 214.261230,232.999557 207.451523,233.001938 
z"/>
<path fill="#874C26" opacity="1.000000" stroke="none" 
	d="
M288.902374,212.038177 
	C288.342712,212.207886 287.435883,212.272278 286.306061,211.805710 
	C286.003082,210.547989 285.923126,209.821228 285.843201,209.094467 
	C285.843201,209.094467 286.336945,209.073959 286.582336,209.085617 
	C287.403534,210.042465 287.979401,210.987671 288.902374,212.038177 
z"/>
<path fill="#874C26" opacity="1.000000" stroke="none" 
	d="
M299.809387,212.583893 
	C299.442139,212.687851 298.857697,212.567673 298.020203,212.285095 
	C298.375488,212.201721 298.983887,212.280746 299.809387,212.583893 
z"/>
<path fill="#9B2221" opacity="1.000000" stroke="none" 
	d="
M227.512817,230.025665 
	C227.016205,227.937576 226.983292,225.836182 226.923279,223.282135 
	C226.680618,219.976059 228.430939,219.695145 230.696381,219.715363 
	C239.491669,219.793884 248.287918,219.767715 257.551514,219.835785 
	C258.154388,221.889343 258.289551,223.887634 258.733063,225.966400 
	C258.765472,227.204041 258.489532,228.361206 258.117859,229.763153 
	C248.006927,230.009415 237.991714,230.010880 227.512817,230.025665 
z"/>
<path fill="#9B2221" opacity="1.000000" stroke="none" 
	d="
M140.213562,222.373810 
	C140.153976,224.862061 140.080170,226.999146 139.979065,229.591675 
	C131.689804,230.030838 123.427055,230.072632 115.166489,229.957993 
	C113.058876,229.928741 110.958145,229.403702 108.450531,229.006622 
	C108.038307,228.455002 108.029793,228.003189 108.018051,227.209351 
	C108.346306,224.784729 108.677788,222.702103 109.030243,220.198639 
	C118.671097,219.763031 128.290970,219.748291 138.604431,219.832703 
	C139.298035,219.931854 139.787064,219.968491 139.787064,219.968491 
	C139.924484,220.653214 140.061920,221.337921 140.213562,222.373810 
z"/>
<path fill="#683426" opacity="1.000000" stroke="none" 
	d="
M281.130127,227.188873 
	C281.036652,227.050217 281.511108,227.001465 281.749359,227.005493 
	C281.732941,227.115540 281.478302,227.221542 281.130127,227.188873 
z"/>
<path fill="#373737" opacity="1.000000" stroke="none" 
	d="
M119.348106,170.989441 
	C118.986641,166.668381 119.046036,162.273621 119.018265,157.418121 
	C120.073471,156.957413 121.215836,156.957413 122.897537,156.957413 
	C122.897537,160.852005 123.103340,164.622589 122.754494,168.341141 
	C122.666008,169.284378 120.811813,170.061996 119.348106,170.989441 
z"/>
<path fill="#121212" opacity="1.000000" stroke="none" 
	d="
M125.921684,202.220413 
	C122.846848,202.178238 119.735886,202.178238 116.273750,202.178238 
	C116.273750,198.651016 116.273750,195.470947 116.273750,191.972885 
	C119.360771,191.972885 122.520714,191.972885 126.089272,191.972885 
	C126.089272,195.186890 126.089272,198.275131 125.947975,201.852112 
	C125.806679,202.340820 125.885551,202.262589 125.921684,202.220413 
z"/>
<path fill="#1F1F1F" opacity="1.000000" stroke="none" 
	d="
M230.375488,186.252060 
	C226.097794,187.314835 221.797867,187.916672 217.145660,188.567810 
	C217.145660,185.761703 217.145660,183.860886 217.145660,181.596802 
	C220.148224,181.596802 223.178619,181.596802 225.268341,181.596802 
	C227.337631,183.303665 228.845444,184.547394 230.375488,186.252060 
z"/>
<path fill="#1F1F1F" opacity="1.000000" stroke="none" 
	d="
M223.279449,155.906952 
	C218.928238,156.537262 214.741745,156.801041 210.203186,157.086990 
	C210.203186,154.487732 210.203186,152.456284 210.203186,150.413040 
	C218.277496,148.985199 220.261948,149.751022 223.279449,155.906952 
z"/>
<path fill="#FCD604" opacity="1.000000" stroke="none" 
	d="
M220.037994,222.521912 
	C195.985489,222.902359 171.946548,222.932205 147.440781,222.899017 
	C145.767731,220.819473 144.561508,218.802979 143.200211,216.483932 
	C169.375534,216.121384 195.705917,216.061371 222.499878,216.050629 
	C221.992844,218.123703 221.022202,220.147507 220.037994,222.521912 
z"/>
<path fill="#EBAC1D" opacity="1.000000" stroke="none" 
	d="
M285.611023,209.090485 
	C285.923126,209.821228 286.003082,210.547989 286.071198,211.642029 
	C285.694824,211.290863 285.330322,210.572433 284.949036,209.534134 
	C284.932281,209.214264 285.378845,209.086517 285.611023,209.090485 
z"/>
<path fill="#BE3525" opacity="1.000000" stroke="none" 
	d="
M139.744049,219.804535 
	C139.787064,219.968491 139.298035,219.931854 139.060959,219.866776 
	C139.116272,219.747986 139.408646,219.694275 139.744049,219.804535 
z"/>
</svg>