<svg width="515" height="56" viewBox="0 0 515 56" fill="none" xmlns="http://www.w3.org/2000/svg">
<g clip-path="url(#clip0_503_30462)">
<path d="M7.39933 0.803955V48.929H28.0973V55.804H0.5V0.803955H7.39933ZM59.1443 0.803955V7.67896H62.594V14.554H66.0436V42.054H62.594V48.929H59.1443V55.804H41.896V48.929H38.4463V42.054H34.9966V14.554H38.4463V7.67896H41.896V0.803955H59.1443ZM45.3456 7.67896V14.554H41.896V42.054H45.3456V48.929H55.6946V42.054H59.1443V14.554H55.6946V7.67896H45.3456ZM148.836 0.803955V7.67896H135.037V55.804H128.138V7.67896H114.339V0.803955H148.836ZM221.279 14.554V7.67896H204.03V21.429H228.178V48.929H224.728V55.804H200.581V48.929H197.131V42.054H204.03V48.929H221.279V28.304H200.581V21.429H197.131V7.67896H200.581V0.803955H224.728V7.67896H228.178V14.554H221.279ZM245.426 0.803955V48.929H259.225V0.803955H266.124V48.929H262.674V55.804H241.977V48.929H238.527V0.803955H245.426ZM300.621 0.803955V7.67896H304.07V21.429H297.171V28.304H300.621V35.179H304.07V42.054H307.52V55.804H300.621V42.054H297.171V35.179H293.721V28.304H283.372V55.804H276.473V0.803955H300.621ZM283.372 7.67896V21.429H297.171V7.67896H283.372ZM324.768 0.803955V28.304H328.218V35.179H331.668V42.054H335.117V35.179H338.567V28.304H342.017V0.803955H348.916V28.304H345.466V35.179H342.017V42.054H338.567V48.929H335.117V55.804H331.668V48.929H328.218V42.054H324.768V35.179H321.319V28.304H317.869V0.803955H324.768ZM383.413 0.803955V7.67896H376.513V48.929H383.413V55.804H362.715V48.929H369.614V7.67896H362.715V0.803955H383.413ZM404.111 0.803955V28.304H407.56V35.179H411.01V42.054H414.46V35.179H417.909V28.304H421.359V0.803955H428.258V28.304H424.809V35.179H421.359V42.054H417.909V48.929H414.46V55.804H411.01V48.929H407.56V42.054H404.111V35.179H400.661V28.304H397.211V0.803955H404.111ZM507.601 0.803955V7.67896H511.05V21.429H504.151V28.304H507.601V35.179H511.05V42.054H514.5V55.804H507.601V42.054H504.151V35.179H500.701V28.304H490.352V55.804H483.453V0.803955H507.601ZM490.352 7.67896V21.429H504.151V7.67896H490.352ZM100.54 0.803955V7.67896H103.99V14.554H107.44V42.054H103.99V48.929H100.54V55.804H83.2919V48.929H79.8423V42.054H76.3926V14.554H79.8423V7.67896H83.2919V0.803955H100.54ZM86.7416 7.67896V14.554H83.2919V42.054H86.7416V48.929H97.0906V42.054H100.54V14.554H97.0906V7.67896H86.7416ZM442.057 7.67896V0.803955H469.654V7.67896H473.104V42.054H462.755V55.804H448.956V42.054H438.607V7.67896H442.057ZM445.507 21.429V35.179H452.406V42.054H459.305V35.179H466.205V21.429H459.305V35.179H452.406V21.429H445.507Z" fill="#00FF3C"/>
</g>
<defs>
<clipPath id="clip0_503_30462">
<rect width="514" height="55" fill="white" transform="translate(0.5 0.803955)"/>
</clipPath>
</defs>
</svg>
