<svg width="512" height="128" viewBox="0 0 512 128" fill="none" xmlns="http://www.w3.org/2000/svg">
<path d="M30.0341 81V46.0909H53.1477V52.1761H37.4148V60.4943H51.6136V66.5795H37.4148V81H30.0341ZM67.8835 81.5114C65.2358 81.5114 62.946 80.9489 61.0142 79.8239C59.0938 78.6875 57.6108 77.108 56.5653 75.0852C55.5199 73.0511 54.9972 70.6932 54.9972 68.0114C54.9972 65.3068 55.5199 62.9432 56.5653 60.9205C57.6108 58.8864 59.0938 57.3068 61.0142 56.1818C62.946 55.0455 65.2358 54.4773 67.8835 54.4773C70.5312 54.4773 72.8153 55.0455 74.7358 56.1818C76.6676 57.3068 78.1562 58.8864 79.2017 60.9205C80.2472 62.9432 80.7699 65.3068 80.7699 68.0114C80.7699 70.6932 80.2472 73.0511 79.2017 75.0852C78.1562 77.108 76.6676 78.6875 74.7358 79.8239C72.8153 80.9489 70.5312 81.5114 67.8835 81.5114ZM67.9176 75.8864C69.1222 75.8864 70.1278 75.5455 70.9347 74.8636C71.7415 74.1705 72.3494 73.2273 72.7585 72.0341C73.179 70.8409 73.3892 69.483 73.3892 67.9602C73.3892 66.4375 73.179 65.0795 72.7585 63.8864C72.3494 62.6932 71.7415 61.75 70.9347 61.0568C70.1278 60.3636 69.1222 60.017 67.9176 60.017C66.7017 60.017 65.679 60.3636 64.8494 61.0568C64.0313 61.75 63.4119 62.6932 62.9915 63.8864C62.5824 65.0795 62.3778 66.4375 62.3778 67.9602C62.3778 69.483 62.5824 70.8409 62.9915 72.0341C63.4119 73.2273 64.0313 74.1705 64.8494 74.8636C65.679 75.5455 66.7017 75.8864 67.9176 75.8864ZM85.4915 81V54.8182H92.5312V59.3864H92.804C93.2813 57.7614 94.0824 56.5341 95.2074 55.7045C96.3324 54.8636 97.6278 54.4432 99.0938 54.4432C99.4574 54.4432 99.8494 54.4659 100.27 54.5114C100.69 54.5568 101.06 54.6193 101.378 54.6989V61.142C101.037 61.0398 100.565 60.9489 99.9631 60.8693C99.3608 60.7898 98.8097 60.75 98.3097 60.75C97.2415 60.75 96.2869 60.983 95.446 61.4489C94.6165 61.9034 93.9574 62.5398 93.4688 63.358C92.9915 64.1761 92.7528 65.1193 92.7528 66.1875V81H85.4915ZM115.743 81.5114C113.061 81.5114 110.754 80.9432 108.822 79.8068C106.902 78.6591 105.425 77.0682 104.391 75.0341C103.368 73 102.857 70.6591 102.857 68.0114C102.857 65.3295 103.374 62.9773 104.408 60.9545C105.453 58.9205 106.936 57.3352 108.857 56.1989C110.777 55.0511 113.061 54.4773 115.709 54.4773C117.993 54.4773 119.993 54.892 121.709 55.7216C123.425 56.5511 124.783 57.7159 125.783 59.2159C126.783 60.7159 127.334 62.4773 127.436 64.5H120.584C120.391 63.1932 119.879 62.142 119.05 61.3466C118.232 60.5398 117.158 60.1364 115.828 60.1364C114.703 60.1364 113.72 60.4432 112.879 61.0568C112.05 61.6591 111.402 62.5398 110.936 63.6989C110.47 64.858 110.237 66.2614 110.237 67.9091C110.237 69.5795 110.464 71 110.919 72.1705C111.385 73.3409 112.038 74.233 112.879 74.8466C113.72 75.4602 114.703 75.767 115.828 75.767C116.658 75.767 117.402 75.5966 118.061 75.2557C118.732 74.9148 119.283 74.4205 119.714 73.7727C120.158 73.1136 120.447 72.3239 120.584 71.4034H127.436C127.322 73.4034 126.777 75.1648 125.8 76.6875C124.834 78.1989 123.499 79.3807 121.794 80.233C120.089 81.0852 118.072 81.5114 115.743 81.5114ZM144.017 81.5114C141.324 81.5114 139.006 80.9659 137.062 79.875C135.131 78.7727 133.642 77.2159 132.597 75.2045C131.551 73.1818 131.028 70.7898 131.028 68.0284C131.028 65.3352 131.551 62.9716 132.597 60.9375C133.642 58.9034 135.114 57.3182 137.011 56.1818C138.92 55.0455 141.159 54.4773 143.727 54.4773C145.455 54.4773 147.063 54.7557 148.551 55.3125C150.051 55.858 151.358 56.6818 152.472 57.7841C153.597 58.8864 154.472 60.2727 155.097 61.9432C155.722 63.6023 156.034 65.5455 156.034 67.7727V69.767H133.926V65.267H149.199C149.199 64.2216 148.972 63.2955 148.517 62.4886C148.063 61.6818 147.432 61.0511 146.625 60.5966C145.83 60.1307 144.903 59.8977 143.847 59.8977C142.744 59.8977 141.767 60.1534 140.915 60.6648C140.074 61.1648 139.415 61.8409 138.938 62.6932C138.46 63.5341 138.216 64.4716 138.205 65.5057V69.7841C138.205 71.0795 138.443 72.1989 138.92 73.142C139.409 74.0852 140.097 74.8125 140.983 75.3239C141.869 75.8352 142.92 76.0909 144.136 76.0909C144.943 76.0909 145.682 75.9773 146.352 75.75C147.023 75.5227 147.597 75.1818 148.074 74.7273C148.551 74.2727 148.915 73.7159 149.165 73.0568L155.881 73.5C155.54 75.1136 154.841 76.5227 153.784 77.7273C152.739 78.9205 151.386 79.8523 149.727 80.5227C148.08 81.1818 146.176 81.5114 144.017 81.5114ZM172.018 81V46.0909H185.791C188.439 46.0909 190.695 46.5966 192.558 47.608C194.422 48.608 195.842 50 196.82 51.7841C197.808 53.5568 198.303 55.6023 198.303 57.9205C198.303 60.2386 197.803 62.2841 196.803 64.0568C195.803 65.8295 194.354 67.2102 192.456 68.1989C190.57 69.1875 188.286 69.6818 185.604 69.6818H176.825V63.767H184.411C185.831 63.767 187.001 63.5227 187.922 63.0341C188.854 62.5341 189.547 61.8466 190.001 60.9716C190.467 60.0852 190.7 59.0682 190.7 57.9205C190.7 56.7614 190.467 55.75 190.001 54.8864C189.547 54.0114 188.854 53.3352 187.922 52.858C186.99 52.3693 185.808 52.125 184.376 52.125H179.399V81H172.018ZM202.96 81V54.8182H210V59.3864H210.273C210.75 57.7614 211.551 56.5341 212.676 55.7045C213.801 54.8636 215.097 54.4432 216.562 54.4432C216.926 54.4432 217.318 54.4659 217.739 54.5114C218.159 54.5568 218.528 54.6193 218.847 54.6989V61.142C218.506 61.0398 218.034 60.9489 217.432 60.8693C216.83 60.7898 216.278 60.75 215.778 60.75C214.71 60.75 213.756 60.983 212.915 61.4489C212.085 61.9034 211.426 62.5398 210.938 63.358C210.46 64.1761 210.222 65.1193 210.222 66.1875V81H202.96ZM222.601 81V54.8182H229.862V81H222.601ZM226.249 51.4432C225.169 51.4432 224.243 51.0852 223.47 50.3693C222.709 49.642 222.328 48.7727 222.328 47.7614C222.328 46.7614 222.709 45.9034 223.47 45.1875C224.243 44.4602 225.169 44.0966 226.249 44.0966C227.328 44.0966 228.249 44.4602 229.01 45.1875C229.783 45.9034 230.169 46.7614 230.169 47.7614C230.169 48.7727 229.783 49.642 229.01 50.3693C228.249 51.0852 227.328 51.4432 226.249 51.4432ZM235.679 81V54.8182H242.599V59.4375H242.906C243.452 57.9034 244.361 56.6932 245.634 55.8068C246.906 54.9205 248.429 54.4773 250.202 54.4773C251.997 54.4773 253.526 54.9261 254.787 55.8239C256.048 56.7102 256.889 57.9148 257.31 59.4375H257.582C258.116 57.9375 259.082 56.7386 260.48 55.8409C261.889 54.9318 263.554 54.4773 265.474 54.4773C267.918 54.4773 269.901 55.2557 271.423 56.8125C272.957 58.358 273.724 60.5511 273.724 63.392V81H266.48V64.8239C266.48 63.3693 266.094 62.2784 265.321 61.5511C264.548 60.8239 263.582 60.4602 262.423 60.4602C261.105 60.4602 260.077 60.8807 259.338 61.7216C258.599 62.5511 258.23 63.6477 258.23 65.0114V81H251.19V64.6705C251.19 63.3864 250.821 62.3636 250.082 61.6023C249.355 60.8409 248.395 60.4602 247.202 60.4602C246.395 60.4602 245.668 60.6648 245.02 61.0739C244.384 61.4716 243.878 62.0341 243.503 62.7614C243.128 63.4773 242.94 64.3182 242.94 65.2841V81H235.679ZM291.392 81.5114C288.699 81.5114 286.381 80.9659 284.438 79.875C282.506 78.7727 281.017 77.2159 279.972 75.2045C278.926 73.1818 278.403 70.7898 278.403 68.0284C278.403 65.3352 278.926 62.9716 279.972 60.9375C281.017 58.9034 282.489 57.3182 284.386 56.1818C286.295 55.0455 288.534 54.4773 291.102 54.4773C292.83 54.4773 294.438 54.7557 295.926 55.3125C297.426 55.858 298.733 56.6818 299.847 57.7841C300.972 58.8864 301.847 60.2727 302.472 61.9432C303.097 63.6023 303.409 65.5455 303.409 67.7727V69.767H281.301V65.267H296.574C296.574 64.2216 296.347 63.2955 295.892 62.4886C295.438 61.6818 294.807 61.0511 294 60.5966C293.205 60.1307 292.278 59.8977 291.222 59.8977C290.119 59.8977 289.142 60.1534 288.29 60.6648C287.449 61.1648 286.79 61.8409 286.312 62.6932C285.835 63.5341 285.591 64.4716 285.58 65.5057V69.7841C285.58 71.0795 285.818 72.1989 286.295 73.142C286.784 74.0852 287.472 74.8125 288.358 75.3239C289.244 75.8352 290.295 76.0909 291.511 76.0909C292.318 76.0909 293.057 75.9773 293.727 75.75C294.398 75.5227 294.972 75.1818 295.449 74.7273C295.926 74.2727 296.29 73.7159 296.54 73.0568L303.256 73.5C302.915 75.1136 302.216 76.5227 301.159 77.7273C300.114 78.9205 298.761 79.8523 297.102 80.5227C295.455 81.1818 293.551 81.5114 291.392 81.5114ZM319.393 81V46.0909H326.774V60.4943H341.757V46.0909H349.121V81H341.757V66.5795H326.774V81H319.393ZM367.001 81.5114C364.308 81.5114 361.99 80.9659 360.047 79.875C358.115 78.7727 356.626 77.2159 355.581 75.2045C354.536 73.1818 354.013 70.7898 354.013 68.0284C354.013 65.3352 354.536 62.9716 355.581 60.9375C356.626 58.9034 358.098 57.3182 359.996 56.1818C361.905 55.0455 364.143 54.4773 366.712 54.4773C368.439 54.4773 370.047 54.7557 371.536 55.3125C373.036 55.858 374.342 56.6818 375.456 57.7841C376.581 58.8864 377.456 60.2727 378.081 61.9432C378.706 63.6023 379.018 65.5455 379.018 67.7727V69.767H356.911V65.267H372.183C372.183 64.2216 371.956 63.2955 371.501 62.4886C371.047 61.6818 370.416 61.0511 369.609 60.5966C368.814 60.1307 367.888 59.8977 366.831 59.8977C365.729 59.8977 364.751 60.1534 363.899 60.6648C363.058 61.1648 362.399 61.8409 361.922 62.6932C361.445 63.5341 361.2 64.4716 361.189 65.5057V69.7841C361.189 71.0795 361.428 72.1989 361.905 73.142C362.393 74.0852 363.081 74.8125 363.967 75.3239C364.854 75.8352 365.905 76.0909 367.121 76.0909C367.928 76.0909 368.666 75.9773 369.337 75.75C370.007 75.5227 370.581 75.1818 371.058 74.7273C371.536 74.2727 371.899 73.7159 372.149 73.0568L378.865 73.5C378.524 75.1136 377.825 76.5227 376.768 77.7273C375.723 78.9205 374.371 79.8523 372.712 80.5227C371.064 81.1818 369.161 81.5114 367.001 81.5114ZM383.757 81V54.8182H390.797V59.3864H391.07C391.547 57.7614 392.348 56.5341 393.473 55.7045C394.598 54.8636 395.893 54.4432 397.359 54.4432C397.723 54.4432 398.115 54.4659 398.536 54.5114C398.956 54.5568 399.325 54.6193 399.643 54.6989V61.142C399.303 61.0398 398.831 60.9489 398.229 60.8693C397.626 60.7898 397.075 60.75 396.575 60.75C395.507 60.75 394.553 60.983 393.712 61.4489C392.882 61.9034 392.223 62.5398 391.734 63.358C391.257 64.1761 391.018 65.1193 391.018 66.1875V81H383.757ZM414.009 81.5114C411.361 81.5114 409.071 80.9489 407.139 79.8239C405.219 78.6875 403.736 77.108 402.69 75.0852C401.645 73.0511 401.122 70.6932 401.122 68.0114C401.122 65.3068 401.645 62.9432 402.69 60.9205C403.736 58.8864 405.219 57.3068 407.139 56.1818C409.071 55.0455 411.361 54.4773 414.009 54.4773C416.656 54.4773 418.94 55.0455 420.861 56.1818C422.793 57.3068 424.281 58.8864 425.327 60.9205C426.372 62.9432 426.895 65.3068 426.895 68.0114C426.895 70.6932 426.372 73.0511 425.327 75.0852C424.281 77.108 422.793 78.6875 420.861 79.8239C418.94 80.9489 416.656 81.5114 414.009 81.5114ZM414.043 75.8864C415.247 75.8864 416.253 75.5455 417.06 74.8636C417.866 74.1705 418.474 73.2273 418.884 72.0341C419.304 70.8409 419.514 69.483 419.514 67.9602C419.514 66.4375 419.304 65.0795 418.884 63.8864C418.474 62.6932 417.866 61.75 417.06 61.0568C416.253 60.3636 415.247 60.017 414.043 60.017C412.827 60.017 411.804 60.3636 410.974 61.0568C410.156 61.75 409.537 62.6932 409.116 63.8864C408.707 65.0795 408.503 66.4375 408.503 67.9602C408.503 69.483 408.707 70.8409 409.116 72.0341C409.537 73.2273 410.156 74.1705 410.974 74.8636C411.804 75.5455 412.827 75.8864 414.043 75.8864ZM443.548 81.5114C440.855 81.5114 438.537 80.9659 436.594 79.875C434.662 78.7727 433.173 77.2159 432.128 75.2045C431.082 73.1818 430.56 70.7898 430.56 68.0284C430.56 65.3352 431.082 62.9716 432.128 60.9375C433.173 58.9034 434.645 57.3182 436.543 56.1818C438.452 55.0455 440.69 54.4773 443.259 54.4773C444.986 54.4773 446.594 54.7557 448.082 55.3125C449.582 55.858 450.889 56.6818 452.003 57.7841C453.128 58.8864 454.003 60.2727 454.628 61.9432C455.253 63.6023 455.565 65.5455 455.565 67.7727V69.767H433.457V65.267H448.73C448.73 64.2216 448.503 63.2955 448.048 62.4886C447.594 61.6818 446.963 61.0511 446.156 60.5966C445.361 60.1307 444.435 59.8977 443.378 59.8977C442.276 59.8977 441.298 60.1534 440.446 60.6648C439.605 61.1648 438.946 61.8409 438.469 62.6932C437.991 63.5341 437.747 64.4716 437.736 65.5057V69.7841C437.736 71.0795 437.974 72.1989 438.452 73.142C438.94 74.0852 439.628 74.8125 440.514 75.3239C441.401 75.8352 442.452 76.0909 443.668 76.0909C444.474 76.0909 445.213 75.9773 445.884 75.75C446.554 75.5227 447.128 75.1818 447.605 74.7273C448.082 74.2727 448.446 73.7159 448.696 73.0568L455.412 73.5C455.071 75.1136 454.372 76.5227 453.315 77.7273C452.27 78.9205 450.918 79.8523 449.259 80.5227C447.611 81.1818 445.707 81.5114 443.548 81.5114ZM482.088 62.2841L475.44 62.6932C475.327 62.125 475.082 61.6136 474.707 61.1591C474.332 60.6932 473.838 60.3239 473.224 60.0511C472.622 59.767 471.901 59.625 471.06 59.625C469.935 59.625 468.986 59.8636 468.213 60.3409C467.44 60.8068 467.054 61.4318 467.054 62.2159C467.054 62.8409 467.304 63.3693 467.804 63.8011C468.304 64.233 469.162 64.5795 470.378 64.8409L475.116 65.7955C477.662 66.3182 479.56 67.1591 480.81 68.3182C482.06 69.4773 482.685 71 482.685 72.8864C482.685 74.6023 482.179 76.108 481.168 77.4034C480.168 78.6989 478.793 79.7102 477.043 80.4375C475.304 81.1534 473.298 81.5114 471.026 81.5114C467.56 81.5114 464.798 80.7898 462.741 79.3466C460.696 77.892 459.497 75.9148 459.145 73.4148L466.287 73.0398C466.503 74.0966 467.026 74.9034 467.855 75.4602C468.685 76.0057 469.747 76.2784 471.043 76.2784C472.315 76.2784 473.338 76.0341 474.111 75.5455C474.895 75.0455 475.293 74.4034 475.304 73.6193C475.293 72.9602 475.014 72.4205 474.469 72C473.923 71.5682 473.082 71.2386 471.946 71.0114L467.412 70.108C464.855 69.5966 462.952 68.7102 461.702 67.4489C460.463 66.1875 459.844 64.5795 459.844 62.625C459.844 60.9432 460.298 59.4943 461.207 58.2784C462.128 57.0625 463.418 56.125 465.077 55.4659C466.747 54.8068 468.702 54.4773 470.94 54.4773C474.247 54.4773 476.849 55.1761 478.747 56.5739C480.656 57.9716 481.77 59.875 482.088 62.2841Z" fill="#E6CB7F"/>
</svg>
